<?xml version="1.0" encoding="UTF-8"?>
<!-- Generated by Pixelmator Pro 3.5.8 -->
<svg width="1200" height="630" viewBox="0 0 1200 630" xmlns="http://www.w3.org/2000/svg">
    <path id="666a" fill="#000000" fill-rule="evenodd" stroke="none" d="M 1128.386719 558.039063 C 1123.552734 558.039063 1116.814453 549.54303 1108.171875 532.550781 C 1104.65625 515.265564 1101.726563 505.304688 1099.382813 502.667969 C 1099.382813 500.910156 1100.261719 500.03125 1102.019531 500.03125 C 1085.027222 469.26947 1072.357422 446.931671 1064.007813 433.015625 L 1080.046875 472.785156 L 1078.289063 473.664063 C 1076.824219 473.664063 1072.429688 467.804688 1065.105469 456.085938 L 1063.347656 456.964844 L 1062.46875 456.964844 C 1054.851563 445.392578 1035.808716 411.994232 1005.339844 356.769531 C 990.105408 333.624969 982.488281 320.148468 982.488281 316.339844 L 984.246094 315.460938 C 980.144531 308.429657 978.09375 304.621094 978.09375 304.035156 C 931.072205 318.683655 900.896545 328.937469 887.566406 334.796875 C 868.816284 379.621185 859.441406 402.765625 859.441406 404.230469 C 857.537109 404.230469 855.486328 412.726501 853.289063 429.71875 C 851.238281 433.820313 849.773438 435.871094 848.894531 435.871094 L 845.378906 435.871094 C 844.207031 435.871094 843.621094 434.992188 843.621094 433.234375 C 847.722656 431.037109 849.773438 427.228546 849.773438 421.808594 C 853.289063 402.472595 856.511719 389.289093 859.441406 382.257813 C 858.416016 382.257813 843.474731 411.554565 814.617188 470.148438 C 807.732361 485.968781 803.337891 495.050781 801.433594 497.394531 C 799.675781 497.394531 798.796875 496.515625 798.796875 494.757813 C 798.796875 493 808.75769 470.441467 828.679688 427.082031 L 831.316406 420.050781 L 829.558594 420.929688 L 827.140625 420.929688 L 818.132813 438.507813 C 818.132813 439.972656 815.789063 444.074188 811.101563 450.8125 C 806.267578 462.384766 803.044922 468.830078 801.433594 470.148438 C 799.675781 470.148438 798.796875 469.5625 798.796875 468.390625 C 813.884827 424.884705 825.45697 392.144592 833.513672 370.171875 C 817.986267 401.959045 806.707092 423.273438 799.675781 434.113281 L 797.917969 434.113281 C 796.746094 434.113281 796.160156 433.234375 796.160156 431.476563 C 808.171936 410.822205 820.476501 385.919983 833.074219 356.769531 L 832.195313 356.769531 C 827.51886 358.341461 823.420288 359.695496 819.861328 360.845703 C 813.683289 367.622772 805.638062 375.930176 795.720703 385.773438 C 786.93158 394.5625 781.365234 398.957031 779.021484 398.957031 C 779.021484 399.542969 778.728516 400.421875 778.142578 401.59375 L 786.931641 411.261719 L 786.931641 412.140625 C 786.931641 413.3125 786.052734 413.898438 784.294922 413.898438 C 792.498108 425.617188 796.599609 434.113251 796.599609 439.386719 L 794.841797 440.265625 L 793.962891 440.265625 C 785.906189 432.208984 778.289124 422.541016 771.111328 411.261719 L 770.232422 411.261719 C 758.367126 433.38092 730.535217 461.21283 686.736328 494.757813 L 699.041016 508.820313 L 699.041016 509.699219 C 699.041016 510.871094 698.455078 511.457031 697.283203 511.457031 L 695.525391 511.457031 C 695.085938 511.457031 690.984436 506.769562 683.220703 497.394531 L 682.341797 497.394531 C 682.341797 498.566406 679.412109 501.203125 673.552734 505.304688 L 672.673828 507.0625 C 673.845703 509.40625 674.431641 511.457031 674.431641 513.214844 L 672.673828 514.09375 L 671.794922 514.09375 C 669.158203 511.310547 666.228516 508.966797 663.005859 507.0625 L 663.005859 505.304688 C 653.923767 514.679688 648.943359 519.367188 648.064453 519.367188 L 647.185547 519.367188 C 646.013672 519.367188 645.427734 518.78125 645.427734 517.609375 L 645.427734 516.730469 C 651.873108 511.017578 655.095703 507.208984 655.095703 505.304688 L 653.337891 504.425781 L 652.458984 504.425781 C 652.458984 506.769531 650.115234 507.941406 645.427734 507.941406 C 643.523438 506.769531 642.058594 506.183594 641.033203 506.183594 C 640.886719 507.0625 633.562561 512.628906 619.060547 522.882813 L 617.302734 522.882813 C 616.130859 522.882813 615.544922 522.296875 615.544922 521.125 L 615.544922 520.246094 C 620.818359 515.558594 629.607361 505.597687 641.912109 490.363281 L 631.365234 478.9375 C 631.365234 480.695313 630.779297 481.574219 629.607422 481.574219 L 628.728516 481.574219 C 607.048706 456.52536 590.935608 435.431702 580.388672 418.292969 L 572.478516 408.625 C 563.764526 420.288269 556.647034 428.637787 551.123047 433.675781 C 551.882385 435.876892 552.263672 437.782257 552.263672 439.386719 L 550.505859 440.265625 L 549.626953 440.265625 C 541.570251 432.208984 533.953186 422.541046 526.775391 411.261719 L 525.896484 411.261719 C 514.031189 433.38092 486.199371 461.212769 442.400391 494.757813 L 454.705078 508.820313 L 454.705078 509.699219 C 454.705078 510.871094 454.119141 511.457031 452.947266 511.457031 L 451.189453 511.457031 C 450.75 511.457031 446.648468 506.769562 438.884766 497.394531 L 438.005859 497.394531 C 438.005859 498.566406 435.076202 501.203125 429.216797 505.304688 L 428.337891 507.0625 C 429.509766 509.40625 430.095703 511.457031 430.095703 513.214844 L 428.337891 514.09375 L 427.458984 514.09375 C 424.822266 511.310547 421.892609 508.966797 418.669922 507.0625 L 418.669922 505.304688 C 409.58786 514.679688 404.607422 519.367188 403.728516 519.367188 L 402.849609 519.367188 C 401.677734 519.367188 401.091797 518.78125 401.091797 517.609375 L 401.091797 516.730469 C 407.53714 511.017578 410.759766 507.208984 410.759766 505.304688 L 409.001953 504.425781 L 408.123047 504.425781 C 408.123047 506.769531 405.779327 507.941406 401.091797 507.941406 C 399.1875 506.769531 397.722656 506.183594 396.697266 506.183594 C 396.550781 507.0625 389.226624 512.628845 374.724609 522.882813 L 372.966797 522.882813 C 371.794922 522.882813 371.208984 522.296875 371.208984 521.125 L 371.208984 520.246094 C 376.482452 515.558594 385.271423 505.597717 397.576172 490.363281 L 387.029297 478.9375 C 387.029297 480.695313 386.443359 481.574219 385.271484 481.574219 L 384.392578 481.574219 C 362.71283 456.52533 346.59967 435.431702 336.052734 418.292969 L 328.142578 408.625 C 319.428619 420.288269 312.311096 428.637787 306.787109 433.675781 C 307.546478 435.876892 307.927734 437.782257 307.927734 439.386719 L 306.169922 440.265625 L 305.291016 440.265625 C 297.234344 432.208954 289.617218 422.541077 282.439453 411.261719 L 281.560547 411.261719 C 269.695251 433.380951 241.863449 461.212769 198.064453 494.757813 L 210.369141 508.820313 L 210.369141 509.699219 C 210.369141 510.871094 209.783203 511.457031 208.611328 511.457031 L 206.853516 511.457031 C 206.414063 511.457031 202.312531 506.769562 194.548828 497.394531 L 193.669922 497.394531 C 193.669922 498.566406 190.740265 501.203125 184.880859 505.304688 L 184.001953 507.0625 C 185.173828 509.40625 185.759766 511.457031 185.759766 513.214844 L 184.001953 514.09375 L 183.123047 514.09375 C 180.486313 511.310547 177.556656 508.966797 174.333984 507.0625 L 174.333984 505.304688 C 165.251923 514.679749 160.271484 519.367188 159.392578 519.367188 L 158.513672 519.367188 C 157.341797 519.367188 156.755859 518.78125 156.755859 517.609375 L 156.755859 516.730469 C 163.201202 511.017548 166.423828 507.208984 166.423828 505.304688 L 164.666016 504.425781 L 163.787109 504.425781 C 163.787109 506.769531 161.44339 507.941406 156.755859 507.941406 C 154.851547 506.769531 153.386719 506.183594 152.361328 506.183594 C 152.214844 507.0625 144.890686 512.628845 130.388672 522.882813 L 128.630859 522.882813 C 127.458977 522.882813 126.873047 522.296875 126.873047 521.125 L 126.873047 520.246094 C 132.146515 515.558594 140.935501 505.597717 153.240234 490.363281 L 142.693359 478.9375 C 142.693359 480.695313 142.107422 481.574219 140.935547 481.574219 L 140.056641 481.574219 C 118.376869 456.525299 102.263718 435.431702 91.716797 418.292969 L 83.806641 408.625 C 74.285118 421.369202 66.667992 430.158173 60.955078 434.992188 L 60.076172 434.992188 C 58.904289 434.992188 58.318359 434.40625 58.318359 433.234375 L 58.318359 432.355469 C 63.445335 427.228485 68.718727 419.904327 74.138672 410.382813 L 73.259766 408.625 L 73.259766 407.746094 C 75.8965 404.083984 78.533188 399.689484 81.169922 394.5625 L 80.291016 394.5625 L 75.896484 398.078125 L 75.017578 398.078125 C 73.845695 398.078125 73.259766 397.492188 73.259766 396.320313 L 73.259766 395.441406 C 76.335953 391.779297 80.144516 386.50589 84.685547 379.621094 C 75.896446 367.902283 71.501953 360.285187 71.501953 356.769531 L 73.259766 355.890625 L 72.380859 354.132813 L 72.380859 352.375 C 72.527344 351.203125 73.113274 350.617188 74.138672 350.617188 L 75.017578 350.617188 C 80.144547 356.476593 83.074219 359.40625 83.806641 359.40625 L 83.806641 358.527344 C 82.04882 356.330078 81.169922 354.279297 81.169922 352.375 L 82.927734 351.496094 L 85.564453 351.496094 L 93.474609 360.285156 C 91.130844 336.994049 89.080086 299.494324 87.322266 247.785156 C 90.251968 229.767517 91.716797 217.75589 91.716797 211.75 L 91.716797 197.6875 C 89.812492 198.859375 88.054695 199.445313 86.443359 199.445313 C 85.857422 198.273438 85.564453 197.394531 85.564453 196.808594 C 85.564453 196.076172 87.32225 194.025421 90.837891 190.65625 C 91.423828 189.630859 91.716797 188.458984 91.716797 187.140625 L 91.716797 180.988281 C 79.851517 185.675812 72.82032 188.898438 70.623047 190.65625 L 69.744141 190.65625 C 68.572258 190.65625 67.986328 189.777344 67.986328 188.019531 C 67.986328 186.115234 72.08786 183.185577 80.291016 179.230469 C 79.705078 178.205078 79.412109 177.033203 79.412109 175.714844 L 77.654297 176.59375 L 75.896484 176.59375 C 74.724602 176.59375 74.138672 176.007813 74.138672 174.835938 L 74.138672 173.957031 C 81.023468 169.415985 90.105423 162.091858 101.384766 151.984375 L 101.384766 150.226563 C 68.865105 163.703186 51.580086 170.441406 49.529297 170.441406 C 48.943356 169.269531 48.650391 168.390625 48.650391 167.804688 C 48.650391 165.314453 56.267517 161.212921 71.501953 155.5 C 74.57814 153.449219 85.124924 148.468781 103.142578 140.558594 C 103.582031 133.527313 104.46093 130.011719 105.779297 130.011719 L 106.658203 130.011719 L 108.416016 130.890625 C 108.416016 129.132813 109.001945 128.253906 110.173828 128.253906 L 111.052734 128.253906 C 111.931648 128.253906 112.810539 129.132813 113.689453 130.890625 L 113.689453 135.285156 L 114.568359 135.285156 L 140.056641 122.980469 L 143.572266 123.859375 C 162.175858 114.484314 192.937332 103.644592 235.857422 91.339844 C 237.029297 91.486328 237.615234 92.072266 237.615234 93.097656 L 237.615234 94.855469 L 235.857422 97.492188 L 235.857422 98.371094 L 236.736328 98.371094 L 255.193359 92.21875 L 256.072266 93.976563 L 256.072266 94.855469 L 254.314453 97.492188 L 254.314453 98.371094 L 255.193359 98.371094 C 265.007874 94.855469 270.28125 93.097656 271.013672 93.097656 C 271.599609 94.123047 271.892578 95.294922 271.892578 96.613281 C 282.439514 93.097656 288.591797 91.339844 290.349609 91.339844 L 291.228516 93.097656 L 291.228516 93.976563 C 291.228516 95.587891 287.126984 97.931641 278.923828 101.007813 L 280.681641 103.644531 L 280.681641 104.523438 C 277.458954 108.332031 259.588013 117.999939 227.068359 133.527344 C 220.037079 139.240265 203.337997 147.15033 176.970703 157.257813 C 176.677734 158.136719 163.494247 167.218689 137.419922 184.503906 L 137.419922 185.382813 C 140.349625 197.248108 142.693344 235.626678 144.451172 300.519531 L 145.330078 300.519531 C 151.042999 290.705017 158.953094 280.744202 169.060547 270.636719 C 161.443329 259.796814 156.755875 253.644531 154.998047 252.179688 L 154.998047 251.300781 C 154.998047 250.128906 155.876938 249.542969 157.634766 249.542969 C 163.347687 253.791046 168.32811 259.65036 172.576172 267.121094 L 173.455078 267.121094 C 174.1875 267.121094 175.652328 265.65625 177.849609 262.726563 C 167.156204 245.441345 161.003922 233.722687 159.392578 227.570313 L 161.150391 226.691406 L 162.029297 226.691406 C 163.64064 226.691406 175.066315 239.874908 196.306641 266.242188 C 196.306641 264.484375 197.771469 263.605469 200.701172 263.605469 C 190.154266 248.078064 184.880859 239.289063 184.880859 237.238281 L 186.638672 236.359375 L 187.517578 236.359375 C 191.472672 239.582062 199.675735 251.886627 212.126953 273.273438 L 213.884766 274.152344 C 218.279312 268.878876 220.623047 266.242188 220.916016 266.242188 L 221.794922 266.242188 C 222.966797 266.388672 223.552734 266.974609 223.552734 268 L 223.552734 270.636719 C 220.037094 275.763702 217.693359 278.400391 216.521484 278.546875 C 224.285187 290.265686 229.851547 296.125 233.220703 296.125 C 235.710953 300.666046 238.347641 303.888672 241.130859 305.792969 C 242.15625 305.207031 243.328125 304.914063 244.646484 304.914063 C 253.582062 317.218811 258.269531 323.371094 258.708984 323.371094 L 259.587891 323.371094 C 235.710846 285.431488 222.23439 262.580109 219.158203 254.816406 L 220.916016 253.9375 L 221.794922 253.9375 C 228.679718 261.994171 245.964737 289.825989 273.650391 337.433594 C 280.095734 347.687561 283.318359 353.839844 283.318359 355.890625 L 285.076172 355.890625 L 303.533203 342.707031 L 304.412109 342.707031 C 305.583984 342.853516 306.169922 343.439453 306.169922 344.464844 L 306.169922 346.222656 C 292.693298 355.744202 285.955078 360.724609 285.955078 361.164063 L 287.712891 365.558594 L 300.017578 358.527344 L 300.896484 358.527344 C 302.068359 358.527344 302.654297 359.40625 302.654297 361.164063 C 300.310547 366.291046 296.794952 370.392548 292.107422 373.46875 C 292.986328 375.8125 293.865234 376.984375 294.744141 376.984375 C 294.744141 376.55603 302.13739 371.093719 316.855469 360.644531 C 316.17868 359.037292 315.837891 357.745117 315.837891 356.769531 L 317.595703 355.890625 L 316.716797 354.132813 L 316.716797 352.375 C 316.863281 351.203125 317.449219 350.617188 318.474609 350.617188 L 319.353516 350.617188 C 321.137146 352.655609 322.648621 354.330872 323.900391 355.660156 C 324.553192 355.199127 325.123993 354.794373 325.798828 354.318359 C 325.605499 353.654602 325.505859 353.006531 325.505859 352.375 L 327.263672 351.496094 L 329.806641 351.496094 C 331.848328 350.058777 333.83197 348.660828 336.052734 347.101563 C 336.052734 346.830048 336.223083 346.502502 336.558594 346.119141 C 334.729645 322.838287 333.095459 290.064178 331.658203 247.785156 C 334.587891 229.767548 336.052734 217.75589 336.052734 211.75 L 336.052734 197.6875 C 334.148438 198.859375 332.390625 199.445313 330.779297 199.445313 C 330.193359 198.273438 329.900391 197.394531 329.900391 196.808594 C 329.900391 196.076172 331.658173 194.025421 335.173828 190.65625 C 335.759766 189.630859 336.052734 188.458984 336.052734 187.140625 L 336.052734 180.988281 C 324.187439 185.675812 317.15625 188.898438 314.958984 190.65625 L 314.080078 190.65625 C 312.908203 190.65625 312.322266 189.777344 312.322266 188.019531 C 312.322266 186.115234 316.423798 183.185577 324.626953 179.230469 C 324.041016 178.205078 323.748047 177.033203 323.748047 175.714844 L 321.990234 176.59375 L 320.232422 176.59375 C 319.060547 176.59375 318.474609 176.007813 318.474609 174.835938 L 318.474609 173.957031 C 325.359406 169.415985 334.441345 162.091858 345.720703 151.984375 L 345.720703 150.226563 C 313.20108 163.703186 295.916016 170.441406 293.865234 170.441406 C 293.279297 169.269531 292.986328 168.390625 292.986328 167.804688 C 292.986328 165.314453 300.603455 161.212921 315.837891 155.5 C 318.914093 153.449219 329.460907 148.468781 347.478516 140.558594 C 347.917969 133.527313 348.796875 130.011719 350.115234 130.011719 L 350.994141 130.011719 L 352.751953 130.890625 C 352.751953 129.132813 353.337891 128.253906 354.509766 128.253906 L 355.388672 128.253906 C 356.267578 128.253906 357.146484 129.132813 358.025391 130.890625 L 358.025391 135.285156 L 358.904297 135.285156 L 384.392578 122.980469 L 387.908203 123.859375 C 406.511749 114.484314 437.273285 103.644592 480.193359 91.339844 C 481.365234 91.486328 481.951172 92.072266 481.951172 93.097656 L 481.951172 94.855469 L 480.193359 97.492188 L 480.193359 98.371094 L 481.072266 98.371094 L 499.529297 92.21875 L 500.408203 93.976563 L 500.408203 94.855469 L 498.650391 97.492188 L 498.650391 98.371094 L 499.529297 98.371094 C 509.343811 94.855469 514.617188 93.097656 515.349609 93.097656 C 515.935547 94.123047 516.228516 95.294922 516.228516 96.613281 C 526.775452 93.097656 532.927734 91.339844 534.685547 91.339844 L 535.564453 93.097656 L 535.564453 93.976563 C 535.564453 95.587891 531.462952 97.931641 523.259766 101.007813 L 525.017578 103.644531 L 525.017578 104.523438 C 521.794922 108.332031 503.92392 117.999939 471.404297 133.527344 C 464.373016 139.240265 447.673889 147.15033 421.306641 157.257813 C 421.013672 158.136719 407.830139 167.218719 381.755859 184.503906 L 381.755859 185.382813 C 384.685547 197.248108 387.029297 235.62674 388.787109 300.519531 L 389.666016 300.519531 C 395.378937 290.705017 403.289001 280.744202 413.396484 270.636719 C 405.779266 259.796814 401.091797 253.644531 399.333984 252.179688 L 399.333984 251.300781 C 399.333984 250.128906 400.212891 249.542969 401.970703 249.542969 C 407.683624 253.791046 412.664032 259.65036 416.912109 267.121094 L 417.791016 267.121094 C 418.523438 267.121094 419.988281 265.65625 422.185547 262.726563 C 411.492126 245.441376 405.339844 233.722687 403.728516 227.570313 L 405.486328 226.691406 L 406.365234 226.691406 C 407.976563 226.691406 419.402313 239.874939 440.642578 266.242188 C 440.642578 264.484375 442.107422 263.605469 445.037109 263.605469 C 434.490173 248.078094 429.216797 239.289063 429.216797 237.238281 L 430.974609 236.359375 L 431.853516 236.359375 C 435.808624 239.582062 444.011658 251.886658 456.462891 273.273438 L 458.220703 274.152344 C 462.615265 268.878876 464.958984 266.242188 465.251953 266.242188 L 466.130859 266.242188 C 467.302734 266.388672 467.888672 266.974609 467.888672 268 L 467.888672 270.636719 C 464.373016 275.763702 462.029297 278.400391 460.857422 278.546875 C 468.621124 290.265686 474.187469 296.125 477.556641 296.125 C 480.046875 300.666046 482.683594 303.888672 485.466797 305.792969 C 486.492188 305.207031 487.664063 304.914063 488.982422 304.914063 C 497.917999 317.218811 502.605469 323.371094 503.044922 323.371094 L 503.923828 323.371094 C 480.046814 285.431519 466.570343 262.580109 463.494141 254.816406 L 465.251953 253.9375 L 466.130859 253.9375 C 473.015656 261.994171 490.30069 289.82605 517.986328 337.433594 C 524.431702 347.687561 527.654297 353.839844 527.654297 355.890625 L 529.412109 355.890625 L 547.869141 342.707031 L 548.748047 342.707031 C 549.919922 342.853516 550.505859 343.439453 550.505859 344.464844 L 550.505859 346.222656 C 537.029236 355.744202 530.291016 360.724609 530.291016 361.164063 L 532.048828 365.558594 L 544.353516 358.527344 L 545.232422 358.527344 C 546.404297 358.527344 546.990234 359.40625 546.990234 361.164063 C 544.646484 366.291046 541.130859 370.392548 536.443359 373.46875 C 537.322266 375.8125 538.201172 376.984375 539.080078 376.984375 C 539.080078 376.55603 546.473328 371.093719 561.191406 360.644531 C 560.514648 359.037292 560.173828 357.745117 560.173828 356.769531 L 561.931641 355.890625 L 561.052734 354.132813 L 561.052734 352.375 C 561.199219 351.203125 561.785156 350.617188 562.810547 350.617188 L 563.689453 350.617188 C 565.473083 352.655609 566.984558 354.330872 568.236328 355.660156 C 568.889099 355.199127 569.459961 354.794373 570.134766 354.318359 C 569.941467 353.654602 569.841797 353.006531 569.841797 352.375 L 571.599609 351.496094 L 574.142578 351.496094 C 576.184265 350.058777 578.167908 348.660828 580.388672 347.101563 C 580.388672 346.830048 580.559021 346.502502 580.894531 346.119141 C 579.065552 322.838318 577.431396 290.064148 575.994141 247.785156 C 578.923828 229.767578 580.388672 217.75589 580.388672 211.75 L 580.388672 197.6875 C 578.484375 198.859375 576.726563 199.445313 575.115234 199.445313 C 574.529297 198.273438 574.236328 197.394531 574.236328 196.808594 C 574.236328 196.076172 575.994141 194.025421 579.509766 190.65625 C 580.095703 189.630859 580.388672 188.458984 580.388672 187.140625 L 580.388672 180.988281 C 568.523376 185.675812 561.492188 188.898438 559.294922 190.65625 L 558.416016 190.65625 C 557.244141 190.65625 556.658203 189.777344 556.658203 188.019531 C 556.658203 186.115234 560.759705 183.185577 568.962891 179.230469 C 568.376953 178.205078 568.083984 177.033203 568.083984 175.714844 L 566.326172 176.59375 L 564.568359 176.59375 C 563.396484 176.59375 562.810547 176.007813 562.810547 174.835938 L 562.810547 173.957031 C 569.695374 169.415985 578.777283 162.091858 590.056641 151.984375 L 590.056641 150.226563 C 557.537109 163.703186 540.251953 170.441406 538.201172 170.441406 C 537.615234 169.269531 537.322266 168.390625 537.322266 167.804688 C 537.322266 165.314453 544.939392 161.212921 560.173828 155.5 C 563.25 153.449219 573.796814 148.468781 591.814453 140.558594 C 592.253906 133.527313 593.132813 130.011719 594.451172 130.011719 L 595.330078 130.011719 L 597.087891 130.890625 C 597.087891 129.132813 597.673828 128.253906 598.845703 128.253906 L 599.724609 128.253906 C 600.603516 128.253906 601.482422 129.132813 602.361328 130.890625 L 602.361328 135.285156 L 603.240234 135.285156 L 628.728516 122.980469 L 632.244141 123.859375 C 650.847778 114.484314 681.609314 103.644592 724.529297 91.339844 C 725.701172 91.486328 726.287109 92.072266 726.287109 93.097656 L 726.287109 94.855469 L 724.529297 97.492188 L 724.529297 98.371094 L 725.408203 98.371094 L 743.865234 92.21875 L 744.744141 93.976563 L 744.744141 94.855469 L 742.986328 97.492188 L 742.986328 98.371094 L 743.865234 98.371094 C 753.679749 94.855469 758.953125 93.097656 759.685547 93.097656 C 760.271484 94.123047 760.564453 95.294922 760.564453 96.613281 C 771.111389 93.097656 777.263672 91.339844 779.021484 91.339844 L 779.900391 93.097656 L 779.900391 93.976563 C 779.900391 95.587891 775.798889 97.931641 767.595703 101.007813 L 769.353516 103.644531 L 769.353516 104.523438 C 766.130859 108.332031 748.259766 117.999939 715.740234 133.527344 C 708.708923 139.240265 692.009888 147.15033 665.642578 157.257813 C 665.349609 158.136719 652.166138 167.21875 626.091797 184.503906 L 626.091797 185.382813 C 629.021484 197.248108 631.365234 235.626801 633.123047 300.519531 L 634.001953 300.519531 C 639.714844 290.705017 647.624939 280.744202 657.732422 270.636719 C 650.115173 259.796814 645.427734 253.644531 643.669922 252.179688 L 643.669922 251.300781 C 643.669922 250.128906 644.548828 249.542969 646.306641 249.542969 C 652.019531 253.791046 657 259.65036 661.248047 267.121094 L 662.126953 267.121094 C 662.859375 267.121094 664.324219 265.65625 666.521484 262.726563 C 655.828064 245.441406 649.675781 233.722687 648.064453 227.570313 L 649.822266 226.691406 L 650.701172 226.691406 C 652.3125 226.691406 663.738159 239.874969 684.978516 266.242188 C 684.978516 264.484375 686.443359 263.605469 689.373047 263.605469 C 678.826111 248.078125 673.552734 239.289063 673.552734 237.238281 L 675.310547 236.359375 L 676.189453 236.359375 C 680.144531 239.582062 688.347595 251.886688 700.798828 273.273438 L 702.556641 274.152344 C 706.951172 268.878876 709.294922 266.242188 709.587891 266.242188 L 710.466797 266.242188 C 711.638672 266.388672 712.224609 266.974609 712.224609 268 L 712.224609 270.636719 C 708.708984 275.763702 706.365234 278.400391 705.193359 278.546875 C 712.957092 290.265686 718.523438 296.125 721.892578 296.125 C 724.382813 300.666046 727.019531 303.888672 729.802734 305.792969 C 730.828125 305.207031 732 304.914063 733.318359 304.914063 C 742.253967 317.218811 746.941406 323.371094 747.380859 323.371094 L 748.259766 323.371094 C 724.38269 285.431549 710.90625 262.580109 707.830078 254.816406 L 709.587891 253.9375 L 710.466797 253.9375 C 717.351624 261.994171 734.636597 289.826111 762.322266 337.433594 C 768.767639 347.687561 771.990234 353.839844 771.990234 355.890625 L 773.748047 355.890625 L 792.205078 342.707031 L 793.083984 342.707031 C 794.255859 342.853516 794.841797 343.439453 794.841797 344.464844 L 794.841797 346.222656 C 781.365173 355.744202 774.626953 360.724609 774.626953 361.164063 L 776.384766 365.558594 L 788.689453 358.527344 L 789.568359 358.527344 C 790.740234 358.527344 791.326172 359.40625 791.326172 361.164063 C 788.982422 366.291046 785.466797 370.392548 780.779297 373.46875 C 781.658203 375.8125 782.537109 376.984375 783.416016 376.984375 C 783.416016 376.588348 789.731689 371.893341 802.3125 362.931641 L 802.3125 362.921875 C 802.420715 362.81366 802.658813 362.647522 803.011719 362.431641 C 808.915955 358.229309 816.151428 353.121033 824.724609 347.101563 C 824.724609 346.960083 824.774109 346.800781 824.865234 346.628906 C 823.062195 347.042297 821.153442 347.482391 819.011719 347.980469 L 818.132813 346.222656 L 818.132813 345.34375 C 818.865234 344.464844 824.724548 341.535187 835.710938 336.554688 C 835.125 334.796875 834.539063 333.917969 833.953125 333.917969 L 829.558594 334.796875 C 828.972656 333.771484 828.679688 332.599609 828.679688 331.28125 C 816.228455 337.140656 803.923889 340.070313 791.765625 340.070313 L 790.886719 338.3125 L 790.886719 334.796875 C 790.886719 333.771484 797.917908 332.013672 811.980469 329.523438 C 825.164124 324.249969 834.539063 321.613281 840.105469 321.613281 L 840.105469 320.734375 C 838.933594 320.734375 828.386841 321.613281 808.464844 323.371094 L 807.585938 321.613281 C 807.585938 319.708984 814.031189 316.19339 826.921875 311.066406 L 826.921875 310.1875 L 826.042969 310.1875 C 823.699219 311.359375 821.648438 311.945313 819.890625 311.945313 C 816.375 311.359375 814.617188 310.480469 814.617188 309.308594 C 814.617188 306.671875 829.265503 301.398468 858.5625 293.488281 C 863.835938 291.291016 866.472656 287.775421 866.472656 282.941406 C 856.511658 285.285156 845.964905 287.042969 834.832031 288.214844 L 833.953125 286.457031 L 833.953125 285.578125 C 837.029297 282.941406 849.9198 277.667999 872.625 269.757813 C 887.566467 247.785126 900.749939 219.07431 912.175781 183.625 C 909.099609 176.447235 902.361389 165.021484 891.960938 149.347656 C 885.515564 138.947205 882.292969 132.794922 882.292969 130.890625 L 884.050781 130.011719 C 886.394531 130.011719 887.566406 131.183594 887.566406 133.527344 L 889.324219 133.527344 L 889.324219 132.648438 C 875.847595 96.466797 867.9375 72.44342 865.59375 60.578125 L 867.351563 59.699219 L 868.230469 59.699219 C 869.548828 60.138672 874.529236 69.51355 883.171875 87.824219 C 902.068481 120.783264 917.302673 148.615204 928.875 171.320313 L 929.753906 171.320313 C 943.084045 139.093689 951.287109 120.636749 954.363281 115.949219 C 954.949219 115.949219 959.343689 108.332092 967.546875 93.097656 L 969.304688 93.097656 C 970.476563 93.097656 971.0625 93.976563 971.0625 95.734375 C 959.490173 118.878937 951.287109 139.09375 946.453125 156.378906 L 946.453125 157.257813 L 947.332031 157.257813 L 962.054688 123.419922 L 971.0625 97.492188 C 971.941406 97.492188 972.599609 97.564453 973.039063 97.710938 L 984.246094 72.003906 C 986.589844 72.003906 987.761719 72.589844 987.761719 73.761719 C 985.271484 80.353577 976.996155 100.496094 962.933594 134.1875 L 961.394531 138.800781 C 972.38092 126.05658 981.46283 114.044983 988.640625 102.765625 L 990.398438 102.765625 C 991.570313 102.765625 992.15625 103.644531 992.15625 105.402344 C 987.322266 118.146545 981.462952 129.572205 974.578125 139.679688 C 972.673828 142.023438 965.34967 154.914032 952.605469 178.351563 L 952.605469 179.230469 C 957.732422 193.29303 965.421814 211.457001 975.675781 233.722656 C 1011.857422 223.17572 1030.535156 217.902344 1031.707031 217.902344 C 1036.980469 218.341797 1039.617188 219.513672 1039.617188 221.417969 C 1039.03125 222.589844 1023.210938 229.035095 992.15625 240.753906 C 991.570313 241.486328 990.033203 242.365234 987.542969 243.390625 L 993.914063 253.9375 C 994.5 253.9375 995.525391 254.888672 996.990234 256.792969 C 1001.53125 255.767578 1005.193359 255.109375 1007.976563 254.816406 C 1013.25 256.28125 1016.472656 258.039063 1017.644531 260.089844 C 1017.644531 261.554688 1012.957092 263.826141 1003.582031 266.902344 L 1004.679688 268.439453 C 1019.914124 263.458954 1028.044922 260.96875 1029.070313 260.96875 L 1029.949219 262.726563 L 1029.949219 263.605469 C 1023.064392 268.292999 1016.912109 271.515625 1011.492188 273.273438 L 1011.492188 274.152344 C 1012.078125 274.152344 1014.128906 273.859375 1017.644531 273.273438 L 1018.523438 275.03125 L 1018.523438 275.910156 L 1014.128906 279.425781 C 1033.61145 274.738251 1046.794922 271.808594 1053.679688 270.636719 L 1060.710938 271.515625 C 1073.894653 268.585938 1081.511719 267.121094 1083.5625 267.121094 L 1084.441406 268.878906 C 1084.441406 271.076172 1073.601685 274.298798 1051.921875 278.546875 C 1047.234375 279.865234 1044.890625 281.623047 1044.890625 283.820313 C 1043.279297 283.820313 1035.076294 286.164032 1020.28125 290.851563 C 1026.433594 303.156311 1032.513672 314.874939 1038.519531 326.007813 C 1068.54895 375.373169 1083.5625 401.154297 1083.5625 403.351563 C 1110.515747 444.660217 1123.992188 466.632813 1123.992188 469.269531 C 1122.820313 469.855469 1121.941406 470.148438 1121.355469 470.148438 C 1119.744141 469.855469 1116.082031 465.021484 1110.369141 455.646484 C 1107.146484 453.302734 1105.535156 451.105469 1105.535156 449.054688 L 1103.777344 449.054688 L 1146.84375 529.035156 L 1146.84375 529.914063 L 1145.085938 530.792969 L 1144.207031 530.792969 C 1136.882813 520.392578 1127.068481 504.132843 1114.763672 482.013672 C 1116.228516 485.382813 1116.960938 487.287109 1116.960938 487.726563 C 1116.960938 488.898438 1115.789063 489.484375 1113.445313 489.484375 L 1115.203125 493 L 1114.324219 497.394531 C 1115.496094 499.591797 1116.082031 501.935547 1116.082031 504.425781 L 1114.324219 505.304688 L 1113.445313 505.304688 C 1111.101563 502.667969 1104.728516 491.75592 1094.328125 472.566406 C 1106.193359 499.519592 1118.132813 526.251892 1130.144531 552.765625 L 1131.023438 557.160156 C 1129.851563 557.746094 1128.972656 558.039063 1128.386719 558.039063 Z M 1123.992188 549.25 L 1123.992188 548.371094 C 1115.496094 530.499939 1110.808594 519.953125 1109.929688 516.730469 L 1109.050781 516.730469 L 1109.050781 517.609375 C 1110.662109 529.181641 1115.642578 539.728516 1123.992188 549.25 Z M 169.939453 502.667969 L 170.818359 502.667969 L 171.697266 498.273438 L 169.060547 496.515625 C 167.888672 496.662109 167.302734 497.248047 167.302734 498.273438 C 168.621094 498.273438 169.5 499.738281 169.939453 502.667969 Z M 414.275391 502.667969 L 415.154297 502.667969 L 416.033203 498.273438 L 413.396484 496.515625 C 412.224609 496.662109 411.638672 497.248047 411.638672 498.273438 C 412.957031 498.273438 413.835938 499.738281 414.275391 502.667969 Z M 658.611328 502.667969 L 659.490234 502.667969 L 660.369141 498.273438 L 657.732422 496.515625 C 656.560547 496.662109 655.974609 497.248047 655.974609 498.273438 C 657.292969 498.273438 658.171875 499.738281 658.611328 502.667969 Z M 154.119141 498.273438 C 154.998047 498.273438 155.876953 497.101563 156.755859 494.757813 L 155.876953 494.757813 C 154.705078 494.904297 154.119141 495.490234 154.119141 496.515625 L 154.119141 498.273438 Z M 398.455078 498.273438 C 399.333984 498.273438 400.212891 497.101563 401.091797 494.757813 L 400.212891 494.757813 C 399.041016 494.904297 398.455078 495.490234 398.455078 496.515625 L 398.455078 498.273438 Z M 642.791016 498.273438 C 643.669922 498.273438 644.548828 497.101563 645.427734 494.757813 L 644.548828 494.757813 C 643.376953 494.904297 642.791016 495.490234 642.791016 496.515625 L 642.791016 498.273438 Z M 175.212891 495.636719 C 176.384766 495.636719 176.970703 495.050781 176.970703 493.878906 L 176.970703 493 C 176.970703 492.121094 176.091812 491.242188 174.333984 490.363281 C 173.162109 490.509766 172.576172 491.095703 172.576172 492.121094 C 173.455078 494.464844 174.333984 495.636719 175.212891 495.636719 Z M 419.548828 495.636719 C 420.720703 495.636719 421.306641 495.050781 421.306641 493.878906 L 421.306641 493 C 421.306641 492.121094 420.427734 491.242188 418.669922 490.363281 C 417.498047 490.509766 416.912109 491.095703 416.912109 492.121094 C 417.791016 494.464844 418.669922 495.636719 419.548828 495.636719 Z M 663.884766 495.636719 C 665.056641 495.636719 665.642578 495.050781 665.642578 493.878906 L 665.642578 493 C 665.642578 492.121094 664.763672 491.242188 663.005859 490.363281 C 661.833984 490.509766 661.248047 491.095703 661.248047 492.121094 C 662.126953 494.464844 663.005859 495.636719 663.884766 495.636719 Z M 187.517578 493 L 188.396484 493 C 189.568359 492.414063 190.447266 492.121094 191.033203 492.121094 C 191.033203 490.949219 190.447266 490.363281 189.275391 490.363281 L 188.396484 490.363281 C 188.396484 490.949219 188.103516 491.828125 187.517578 493 Z M 431.853516 493 L 432.732422 493 C 433.904297 492.414063 434.783203 492.121094 435.369141 492.121094 C 435.369141 490.949219 434.783203 490.363281 433.611328 490.363281 L 432.732422 490.363281 C 432.732422 490.949219 432.439453 491.828125 431.853516 493 Z M 676.189453 493 L 677.068359 493 C 678.240234 492.414063 679.119141 492.121094 679.705078 492.121094 C 679.705078 490.949219 679.119141 490.363281 677.947266 490.363281 L 677.068359 490.363281 C 677.068359 490.949219 676.775391 491.828125 676.189453 493 Z M 194.548828 488.605469 C 197.478531 487.140625 200.115219 483.332062 202.458984 477.179688 C 220.623123 457.697205 229.705078 446.564453 229.705078 443.78125 C 221.501923 448.615265 213.298859 457.404236 205.095703 470.148438 C 197.624969 476.740265 193.230469 481.720703 191.912109 485.089844 C 192.791016 487.433594 193.669922 488.605469 194.548828 488.605469 Z M 438.884766 488.605469 C 441.814453 487.140625 444.451172 483.332062 446.794922 477.179688 C 464.959015 457.697205 474.041016 446.564453 474.041016 443.78125 C 465.83786 448.615265 457.634796 457.404266 449.431641 470.148438 C 441.960907 476.740265 437.566406 481.720703 436.248047 485.089844 C 437.126953 487.433594 438.005859 488.605469 438.884766 488.605469 Z M 683.220703 488.605469 C 686.150391 487.140625 688.787109 483.332062 691.130859 477.179688 C 709.294983 457.697205 718.376953 446.564453 718.376953 443.78125 C 710.173767 448.615265 701.970764 457.404297 693.767578 470.148438 C 686.296814 476.740265 681.902344 481.720703 680.583984 485.089844 C 681.462891 487.433594 682.341797 488.605469 683.220703 488.605469 Z M 178.728516 486.847656 L 180.486328 486.847656 L 180.486328 485.96875 L 178.728516 485.96875 L 178.728516 486.847656 Z M 423.064453 486.847656 L 424.822266 486.847656 L 424.822266 485.96875 L 423.064453 485.96875 L 423.064453 486.847656 Z M 667.400391 486.847656 L 669.158203 486.847656 L 669.158203 485.96875 L 667.400391 485.96875 L 667.400391 486.847656 Z M 149.724609 478.9375 L 150.603516 478.9375 C 146.648422 473.078094 143.718765 469.5625 141.814453 468.390625 L 140.935547 468.390625 C 145.916046 475.275421 148.845703 478.791016 149.724609 478.9375 Z M 394.060547 478.9375 L 394.939453 478.9375 C 390.984344 473.078094 388.054688 469.5625 386.150391 468.390625 L 385.271484 468.390625 C 390.251984 475.275421 393.181641 478.791016 394.060547 478.9375 Z M 638.396484 478.9375 L 639.275391 478.9375 C 635.320313 473.078094 632.390625 469.5625 630.486328 468.390625 L 629.607422 468.390625 C 634.587891 475.275421 637.517578 478.791016 638.396484 478.9375 Z M 171.697266 472.785156 C 172.576172 472.785156 173.455078 471.90625 174.333984 470.148438 L 164.666016 461.359375 L 163.787109 461.359375 L 163.787109 462.238281 C 164.519531 465.021484 167.156235 468.537109 171.697266 472.785156 Z M 416.033203 472.785156 C 416.912109 472.785156 417.791016 471.90625 418.669922 470.148438 L 409.001953 461.359375 L 408.123047 461.359375 L 408.123047 462.238281 C 408.855469 465.021484 411.492157 468.537109 416.033203 472.785156 Z M 660.369141 472.785156 C 661.248047 472.785156 662.126953 471.90625 663.005859 470.148438 L 653.337891 461.359375 L 652.458984 461.359375 L 652.458984 462.238281 C 653.191406 465.021484 655.828125 468.537109 660.369141 472.785156 Z M 221.794922 470.148438 C 224.285172 470.148438 239.519424 455.207153 267.498047 425.324219 L 266.619141 425.324219 C 248.162033 442.462952 233.220749 457.111267 221.794922 469.269531 L 221.794922 470.148438 Z M 466.130859 470.148438 C 468.621094 470.148438 483.855377 455.207123 511.833984 425.324219 L 510.955078 425.324219 C 492.498016 442.462952 477.556702 457.111298 466.130859 469.269531 L 466.130859 470.148438 Z M 710.466797 470.148438 C 712.957031 470.148438 728.191284 455.207092 756.169922 425.324219 L 755.291016 425.324219 C 736.833862 442.462952 721.892639 457.111328 710.466797 469.269531 L 710.466797 470.148438 Z M 178.728516 468.390625 C 181.658218 465.167969 183.123047 463.410156 183.123047 463.117188 L 182.244141 463.117188 C 179.900375 463.849609 178.142578 465.314453 176.970703 467.511719 L 178.728516 468.390625 Z M 423.064453 468.390625 C 425.994141 465.167969 427.458984 463.410156 427.458984 463.117188 L 426.580078 463.117188 C 424.236328 463.849609 422.478516 465.314453 421.306641 467.511719 L 423.064453 468.390625 Z M 667.400391 468.390625 C 670.330078 465.167969 671.794922 463.410156 671.794922 463.117188 L 670.916016 463.117188 C 668.572266 463.849609 666.814453 465.314453 665.642578 467.511719 L 667.400391 468.390625 Z M 140.056641 466.632813 L 140.935547 466.632813 C 140.935547 465.753906 140.056656 464.875 138.298828 463.996094 L 137.419922 463.996094 C 137.419922 464.875 138.298813 465.753906 140.056641 466.632813 Z M 384.392578 466.632813 L 385.271484 466.632813 C 385.271484 465.753906 384.392578 464.875 382.634766 463.996094 L 381.755859 463.996094 C 381.755859 464.875 382.634766 465.753906 384.392578 466.632813 Z M 628.728516 466.632813 L 629.607422 466.632813 C 629.607422 465.753906 628.728516 464.875 626.970703 463.996094 L 626.091797 463.996094 C 626.091797 464.875 626.970703 465.753906 628.728516 466.632813 Z M 173.455078 463.117188 C 196.746185 442.755768 208.464844 431.916016 208.611328 430.597656 C 217.986359 416.535095 226.482391 404.816437 234.099609 395.441406 L 234.978516 395.441406 C 236.150391 395.441406 236.736328 396.320313 236.736328 398.078125 C 237.46875 398.078125 242.449188 393.097687 251.677734 383.136719 C 226.48233 345.636566 208.611359 319.85553 198.064453 305.792969 L 197.185547 305.792969 C 191.61911 310.187531 180.779358 323.078033 164.666016 344.464844 C 151.482376 359.845764 143.86525 368.341797 141.814453 369.953125 C 141.814453 376.251984 140.642593 380.060547 138.298828 381.378906 L 137.419922 381.378906 L 135.662109 380.5 L 135.662109 395.441406 C 135.662109 396.613281 135.076172 397.199219 133.904297 397.199219 L 133.025391 397.199219 C 131.853516 397.199219 131.267578 396.613281 131.267578 395.441406 L 131.267578 373.46875 C 130.388672 373.615234 126.28714 378.595673 118.962891 388.410156 C 137.127029 414.777466 153.240173 435.871033 167.302734 451.691406 C 169.6465 459.308624 171.69725 463.117188 173.455078 463.117188 Z M 417.791016 463.117188 C 441.082092 442.755798 452.800781 431.916016 452.947266 430.597656 C 462.322327 416.535095 470.818329 404.816406 478.435547 395.441406 L 479.314453 395.441406 C 480.486328 395.441406 481.072266 396.320313 481.072266 398.078125 C 481.804688 398.078125 486.785095 393.097656 496.013672 383.136719 C 470.818298 345.636597 452.947327 319.85553 442.400391 305.792969 L 441.521484 305.792969 C 435.955048 310.187531 425.115265 323.078064 409.001953 344.464844 C 395.818298 359.845734 388.201172 368.341797 386.150391 369.953125 C 386.150391 376.251984 384.978516 380.060547 382.634766 381.378906 L 381.755859 381.378906 L 379.998047 380.5 L 379.998047 395.441406 C 379.998047 396.613281 379.412109 397.199219 378.240234 397.199219 L 377.361328 397.199219 C 376.189453 397.199219 375.603516 396.613281 375.603516 395.441406 L 375.603516 373.46875 C 374.724609 373.615234 370.623077 378.595703 363.298828 388.410156 C 381.462921 414.777405 397.576111 435.871033 411.638672 451.691406 C 413.982422 459.308624 416.033203 463.117188 417.791016 463.117188 Z M 662.126953 463.117188 C 685.418091 442.755798 697.136719 431.916016 697.283203 430.597656 C 706.658264 416.535126 715.154236 404.816406 722.771484 395.441406 L 723.650391 395.441406 C 724.822266 395.441406 725.408203 396.320313 725.408203 398.078125 C 726.140625 398.078125 731.121033 393.097656 740.349609 383.136719 C 715.154175 345.636627 697.283264 319.85553 686.736328 305.792969 L 685.857422 305.792969 C 680.291016 310.187531 669.451233 323.078094 653.337891 344.464844 C 640.154236 359.845703 632.537109 368.341797 630.486328 369.953125 C 630.486328 376.251984 629.314453 380.060547 626.970703 381.378906 L 626.091797 381.378906 L 624.333984 380.5 L 624.333984 395.441406 C 624.333984 396.613281 623.748047 397.199219 622.576172 397.199219 L 621.697266 397.199219 C 620.525391 397.199219 619.939453 396.613281 619.939453 395.441406 L 619.939453 373.46875 C 619.060547 373.615234 614.959045 378.595703 607.634766 388.410156 C 625.798889 414.777405 641.912048 435.871063 655.974609 451.691406 C 658.318359 459.308624 660.369141 463.117188 662.126953 463.117188 Z M 136.541016 462.238281 L 137.419922 462.238281 C 137.419922 461.359375 136.541031 460.480469 134.783203 459.601563 L 133.904297 459.601563 C 133.904297 460.480469 134.783188 461.359375 136.541016 462.238281 Z M 380.876953 462.238281 L 381.755859 462.238281 C 381.755859 461.359375 380.876953 460.480469 379.119141 459.601563 L 378.240234 459.601563 C 378.240234 460.480469 379.119141 461.359375 380.876953 462.238281 Z M 625.212891 462.238281 L 626.091797 462.238281 C 626.091797 461.359375 625.212891 460.480469 623.455078 459.601563 L 622.576172 459.601563 C 622.576172 460.480469 623.455078 461.359375 625.212891 462.238281 Z M 132.146484 456.964844 L 133.025391 456.964844 C 133.025391 455.792969 132.439453 455.207031 131.267578 455.207031 L 130.388672 455.207031 C 130.535156 456.378906 131.121094 456.964844 132.146484 456.964844 Z M 376.482422 456.964844 L 377.361328 456.964844 C 377.361328 455.792969 376.775391 455.207031 375.603516 455.207031 L 374.724609 455.207031 C 374.871094 456.378906 375.457031 456.964844 376.482422 456.964844 Z M 620.818359 456.964844 L 621.697266 456.964844 C 621.697266 455.792969 621.111328 455.207031 619.939453 455.207031 L 619.060547 455.207031 C 619.207031 456.378906 619.792969 456.964844 620.818359 456.964844 Z M 126.873047 451.691406 L 128.630859 451.691406 L 128.630859 450.8125 L 126.873047 450.8125 L 126.873047 451.691406 Z M 371.208984 451.691406 L 372.966797 451.691406 L 372.966797 450.8125 L 371.208984 450.8125 L 371.208984 451.691406 Z M 615.544922 451.691406 L 617.302734 451.691406 L 617.302734 450.8125 L 615.544922 450.8125 L 615.544922 451.691406 Z M 123.357422 447.296875 L 125.115234 447.296875 L 125.115234 446.417969 L 123.357422 446.417969 L 123.357422 447.296875 Z M 367.693359 447.296875 L 369.451172 447.296875 L 369.451172 446.417969 L 367.693359 446.417969 L 367.693359 447.296875 Z M 612.029297 447.296875 L 613.787109 447.296875 L 613.787109 446.417969 L 612.029297 446.417969 L 612.029297 447.296875 Z M 1087.957031 445.539063 L 1089.714844 445.539063 C 1076.970581 414.777283 1068.474609 396.613312 1064.226563 391.046875 C 1063.787109 391.046875 1059.392578 386.652344 1051.042969 377.863281 L 1050.164063 377.863281 L 1085.320313 438.507813 C 1085.320313 438.947266 1086.199219 441.291016 1087.957031 445.539063 Z M 1062.46875 442.023438 L 1062.46875 441.144531 C 1061.150391 437.628906 1059.978516 435.871094 1058.953125 435.871094 L 1058.953125 436.75 C 1060.271484 440.265625 1061.443359 442.023438 1062.46875 442.023438 Z M 1073.015625 441.144531 L 1074.773438 441.144531 C 1073.015625 437.189453 1072.136719 434.845703 1072.136719 434.113281 L 1069.5 434.113281 C 1071.84375 437.482422 1073.015625 439.826172 1073.015625 441.144531 Z M 305.152344 429.695313 C 309.490112 424.801636 313.930939 418.364929 318.474609 410.382813 L 317.595703 408.625 L 317.595703 407.746094 C 320.232422 404.083984 322.869141 399.689484 325.505859 394.5625 L 324.626953 394.5625 L 320.232422 398.078125 L 319.353516 398.078125 C 318.181641 398.078125 317.595703 397.492188 317.595703 396.320313 L 317.595703 395.441406 C 320.671906 391.779297 324.480438 386.50589 329.021484 379.621094 C 326.408386 376.136963 324.185791 373.018768 322.349609 370.259766 C 317.86731 374.924072 312.779877 380.085144 307.048828 385.773438 C 298.259735 394.562531 292.693359 398.957031 290.349609 398.957031 C 290.349609 399.542969 290.056641 400.421875 289.470703 401.59375 L 298.259766 411.261719 L 298.259766 412.140625 C 298.259766 413.3125 297.380859 413.898438 295.623047 413.898438 C 299.931763 420.053772 303.106812 425.318237 305.152344 429.695313 Z M 549.488281 429.695313 C 553.82605 424.801636 558.266907 418.364929 562.810547 410.382813 L 561.931641 408.625 L 561.931641 407.746094 C 564.568359 404.083984 567.205078 399.689484 569.841797 394.5625 L 568.962891 394.5625 L 564.568359 398.078125 L 563.689453 398.078125 C 562.517578 398.078125 561.931641 397.492188 561.931641 396.320313 L 561.931641 395.441406 C 565.007813 391.779297 568.816406 386.50589 573.357422 379.621094 C 570.744324 376.136963 568.521729 373.018768 566.685547 370.259766 C 562.203247 374.924072 557.115845 380.085144 551.384766 385.773438 C 542.595642 394.5625 537.029297 398.957031 534.685547 398.957031 C 534.685547 399.542969 534.392578 400.421875 533.806641 401.59375 L 542.595703 411.261719 L 542.595703 412.140625 C 542.595703 413.3125 541.716797 413.898438 539.958984 413.898438 C 544.2677 420.053772 547.442749 425.318237 549.488281 429.695313 Z M 104.021484 413.019531 L 104.021484 412.140625 C 104.021484 410.96875 103.435555 410.382813 102.263672 410.382813 L 101.384766 410.382813 C 101.384766 411.261719 102.263664 412.140625 104.021484 413.019531 Z M 348.357422 413.019531 L 348.357422 412.140625 C 348.357422 410.96875 347.771484 410.382813 346.599609 410.382813 L 345.720703 410.382813 C 345.720703 411.261719 346.599609 412.140625 348.357422 413.019531 Z M 592.693359 413.019531 L 592.693359 412.140625 C 592.693359 410.96875 592.107422 410.382813 590.935547 410.382813 L 590.056641 410.382813 C 590.056641 411.261719 590.935547 412.140625 592.693359 413.019531 Z M 287.712891 411.261719 L 288.591797 411.261719 C 287.126953 408.332031 285.955078 406.867188 285.076172 406.867188 L 285.076172 407.746094 C 285.955078 410.089844 286.833984 411.261719 287.712891 411.261719 Z M 532.048828 411.261719 L 532.927734 411.261719 C 531.462891 408.332031 530.291016 406.867188 529.412109 406.867188 L 529.412109 407.746094 C 530.291016 410.089844 531.169922 411.261719 532.048828 411.261719 Z M 776.384766 411.261719 L 777.263672 411.261719 C 775.798828 408.332031 774.626953 406.867188 773.748047 406.867188 L 773.748047 407.746094 C 774.626953 410.089844 775.505859 411.261719 776.384766 411.261719 Z M 91.716797 408.625 L 93.474609 408.625 C 93.474609 407.453125 92.88868 406.867188 91.716797 406.867188 L 91.716797 408.625 Z M 336.052734 408.625 L 337.810547 408.625 C 337.810547 407.453125 337.224609 406.867188 336.052734 406.867188 L 336.052734 408.625 Z M 580.388672 408.625 L 582.146484 408.625 C 582.146484 407.453125 581.560547 406.867188 580.388672 406.867188 L 580.388672 408.625 Z M 97.869141 406.867188 L 98.748047 406.867188 C 98.748047 406.28125 99.041016 405.402344 99.626953 404.230469 C 98.748039 401.886719 97.869148 400.714844 96.990234 400.714844 L 96.111328 404.230469 C 97.283211 404.230469 97.869141 405.109375 97.869141 406.867188 Z M 342.205078 406.867188 L 343.083984 406.867188 C 343.083984 406.28125 343.376953 405.402344 343.962891 404.230469 C 343.083984 401.886719 342.205078 400.714844 341.326172 400.714844 L 340.447266 404.230469 C 341.619141 404.230469 342.205078 405.109375 342.205078 406.867188 Z M 586.541016 406.867188 L 587.419922 406.867188 C 587.419922 406.28125 587.712891 405.402344 588.298828 404.230469 C 587.419922 401.886719 586.541016 400.714844 585.662109 400.714844 L 584.783203 404.230469 C 585.955078 404.230469 586.541016 405.109375 586.541016 406.867188 Z M 88.201172 404.230469 L 89.080078 404.230469 L 89.080078 402.472656 L 88.201172 402.472656 L 88.201172 404.230469 Z M 271.892578 404.230469 L 274.529297 402.472656 C 273.357422 399.835938 272.185547 398.371094 271.013672 398.078125 L 266.619141 402.472656 L 267.498047 402.472656 C 268.523438 401.886719 269.695313 401.59375 271.013672 401.59375 C 271.599609 402.765625 271.892578 403.644531 271.892578 404.230469 Z M 332.537109 404.230469 L 333.416016 404.230469 L 333.416016 402.472656 L 332.537109 402.472656 L 332.537109 404.230469 Z M 516.228516 404.230469 L 518.865234 402.472656 C 517.693359 399.835938 516.521484 398.371094 515.349609 398.078125 L 510.955078 402.472656 L 511.833984 402.472656 C 512.859375 401.886719 514.03125 401.59375 515.349609 401.59375 C 515.935547 402.765625 516.228516 403.644531 516.228516 404.230469 Z M 576.873047 404.230469 L 577.751953 404.230469 L 577.751953 402.472656 L 576.873047 402.472656 L 576.873047 404.230469 Z M 760.564453 404.230469 L 763.201172 402.472656 C 762.029297 399.835938 760.857422 398.371094 759.685547 398.078125 L 755.291016 402.472656 L 756.169922 402.472656 C 757.195313 401.886719 758.367188 401.59375 759.685547 401.59375 C 760.271484 402.765625 760.564453 403.644531 760.564453 404.230469 Z M 829.558594 404.230469 C 830.876953 404.230469 839.080017 387.82428 854.167969 355.011719 L 852.410156 355.011719 C 837.17572 384.455139 829.558594 400.861328 829.558594 404.230469 Z M 248.162109 400.714844 L 249.041016 400.714844 C 250.212891 400.714844 250.798828 400.128906 250.798828 398.957031 L 250.798828 398.078125 C 249.919922 398.078125 249.041016 398.957031 248.162109 400.714844 Z M 492.498047 400.714844 L 493.376953 400.714844 C 494.548828 400.714844 495.134766 400.128906 495.134766 398.957031 L 495.134766 398.078125 C 494.255859 398.078125 493.376953 398.957031 492.498047 400.714844 Z M 736.833984 400.714844 L 737.712891 400.714844 C 738.884766 400.714844 739.470703 400.128906 739.470703 398.957031 L 739.470703 398.078125 C 738.591797 398.078125 737.712891 398.957031 736.833984 400.714844 Z M 277.166016 398.957031 L 278.044922 398.957031 L 279.802734 398.078125 C 278.923828 395.734375 278.044922 394.5625 277.166016 394.5625 L 275.408203 394.5625 L 275.408203 395.441406 C 276.580078 396.90625 277.166016 398.078125 277.166016 398.957031 Z M 521.501953 398.957031 L 522.380859 398.957031 L 524.138672 398.078125 C 523.259766 395.734375 522.380859 394.5625 521.501953 394.5625 L 519.744141 394.5625 L 519.744141 395.441406 C 520.916016 396.90625 521.501953 398.078125 521.501953 398.957031 Z M 765.837891 398.957031 L 766.716797 398.957031 L 768.474609 398.078125 C 767.595703 395.734375 766.716797 394.5625 765.837891 394.5625 L 764.080078 394.5625 L 764.080078 395.441406 C 765.251953 396.90625 765.837891 398.078125 765.837891 398.957031 Z M 111.052734 397.199219 L 112.810547 397.199219 L 112.810547 396.320313 C 112.810547 395.148438 112.224617 394.5625 111.052734 394.5625 L 111.052734 397.199219 Z M 355.388672 397.199219 L 357.146484 397.199219 L 357.146484 396.320313 C 357.146484 395.148438 356.560547 394.5625 355.388672 394.5625 L 355.388672 397.199219 Z M 599.724609 397.199219 L 601.482422 397.199219 L 601.482422 396.320313 C 601.482422 395.148438 600.896484 394.5625 599.724609 394.5625 L 599.724609 397.199219 Z M 248.162109 394.5625 C 253.435577 391.193359 256.072266 389.142578 256.072266 388.410156 L 254.314453 387.53125 C 253.435547 387.53125 251.384781 389.582031 248.162109 393.683594 L 248.162109 394.5625 Z M 492.498047 394.5625 C 497.771515 391.193359 500.408203 389.142578 500.408203 388.410156 L 498.650391 387.53125 C 497.771484 387.53125 495.720734 389.582031 492.498047 393.683594 L 492.498047 394.5625 Z M 736.833984 394.5625 C 742.107422 391.193359 744.744141 389.142578 744.744141 388.410156 L 742.986328 387.53125 C 742.107422 387.53125 740.056641 389.582031 736.833984 393.683594 L 736.833984 394.5625 Z M 257.830078 393.683594 L 259.587891 393.683594 L 259.587891 392.804688 L 257.830078 392.804688 L 257.830078 393.683594 Z M 502.166016 393.683594 L 503.923828 393.683594 L 503.923828 392.804688 L 502.166016 392.804688 L 502.166016 393.683594 Z M 746.501953 393.683594 L 748.259766 393.683594 L 748.259766 392.804688 L 746.501953 392.804688 L 746.501953 393.683594 Z M 284.197266 392.804688 L 291.228516 386.652344 L 292.107422 386.652344 C 292.693359 386.652344 292.986328 386.945313 292.986328 387.53125 L 294.744141 386.652344 L 295.623047 386.652344 L 298.259766 388.410156 C 306.92804 380.113403 314.124207 372.762054 319.861328 366.349609 C 319.527985 365.797058 319.215698 365.263855 318.923828 364.75 C 295.447266 380.883179 283.272644 389.658203 282.439453 391.046875 C 282.585938 392.21875 283.171875 392.804688 284.197266 392.804688 Z M 528.533203 392.804688 L 535.564453 386.652344 L 536.443359 386.652344 C 537.029297 386.652344 537.322266 386.945313 537.322266 387.53125 L 539.080078 386.652344 L 539.958984 386.652344 L 542.595703 388.410156 C 551.263977 380.113403 558.460144 372.762054 564.197266 366.349609 C 563.863953 365.797058 563.551636 365.263855 563.259766 364.75 C 539.783203 380.883179 527.608582 389.658203 526.775391 391.046875 C 526.921875 392.21875 527.507813 392.804688 528.533203 392.804688 Z M 772.869141 392.804688 L 779.900391 386.652344 L 780.779297 386.652344 C 781.365234 386.652344 781.658203 386.945313 781.658203 387.53125 L 783.416016 386.652344 L 784.294922 386.652344 L 786.931641 388.410156 C 796.843506 378.923157 804.832703 370.671753 810.912109 363.648438 C 809.812134 363.976929 808.825684 364.262451 807.951172 364.505859 C 784.246094 380.792023 771.948669 389.651337 771.111328 391.046875 C 771.257813 392.21875 771.84375 392.804688 772.869141 392.804688 Z M 271.892578 391.046875 L 274.529297 391.046875 C 273.943359 389.875 273.650391 388.996094 273.650391 388.410156 C 272.478516 388.556641 271.892578 389.142578 271.892578 390.167969 L 271.892578 391.046875 Z M 516.228516 391.046875 L 518.865234 391.046875 C 518.279297 389.875 517.986328 388.996094 517.986328 388.410156 C 516.814453 388.556641 516.228516 389.142578 516.228516 390.167969 L 516.228516 391.046875 Z M 760.564453 391.046875 L 763.201172 391.046875 C 762.615234 389.875 762.322266 388.996094 762.322266 388.410156 C 761.150391 388.556641 760.564453 389.142578 760.564453 390.167969 L 760.564453 391.046875 Z M 280.681641 386.652344 L 290.349609 378.742188 L 285.955078 377.863281 C 281.267548 381.964844 278.923828 384.308594 278.923828 384.894531 C 279.070313 386.066406 279.65625 386.652344 280.681641 386.652344 Z M 525.017578 386.652344 L 534.685547 378.742188 L 530.291016 377.863281 C 525.603516 381.964844 523.259766 384.308594 523.259766 384.894531 C 523.40625 386.066406 523.992188 386.652344 525.017578 386.652344 Z M 769.353516 386.652344 L 779.021484 378.742188 L 774.626953 377.863281 C 769.939453 381.964844 767.595703 384.308594 767.595703 384.894531 C 767.742188 386.066406 768.328125 386.652344 769.353516 386.652344 Z M 269.255859 385.773438 L 270.134766 385.773438 L 270.134766 384.015625 L 269.255859 384.015625 L 269.255859 385.773438 Z M 513.591797 385.773438 L 514.470703 385.773438 L 514.470703 384.015625 L 513.591797 384.015625 L 513.591797 385.773438 Z M 757.927734 385.773438 L 758.806641 385.773438 L 758.806641 384.015625 L 757.927734 384.015625 L 757.927734 385.773438 Z M 108.416016 379.621094 L 109.294922 379.621094 C 110.027344 379.621094 113.542946 375.519562 119.841797 367.316406 L 119.841797 366.4375 C 118.962883 366.4375 115.15432 370.246063 108.416016 377.863281 L 108.416016 379.621094 Z M 352.751953 379.621094 L 353.630859 379.621094 C 354.363281 379.621094 357.878876 375.519531 364.177734 367.316406 L 364.177734 366.4375 C 363.298828 366.4375 359.490265 370.246063 352.751953 377.863281 L 352.751953 379.621094 Z M 597.087891 379.621094 L 597.966797 379.621094 C 598.699219 379.621094 602.214783 375.519531 608.513672 367.316406 L 608.513672 366.4375 C 607.634766 366.4375 603.826233 370.246063 597.087891 377.863281 L 597.087891 379.621094 Z M 1057.195313 376.984375 L 1058.074219 376.984375 C 1040.642456 344.171814 1024.23645 317.511719 1008.855469 297.003906 C 1005.925781 292.902313 1004.167969 290.851563 1003.582031 290.851563 L 1003.582031 291.730469 C 1007.244141 305.646545 1018.6698 327.326111 1037.859375 356.769531 C 1037.859375 358.380859 1044.304565 365.11908 1057.195313 376.984375 Z M 273.650391 376.105469 C 278.923859 372.003876 281.853516 369.953125 282.439453 369.953125 C 281.267578 367.316406 280.095703 365.851563 278.923828 365.558594 C 278.923828 366.291016 276.873077 368.048828 272.771484 370.832031 L 273.650391 376.105469 Z M 517.986328 376.105469 C 523.259766 372.003876 526.189453 369.953125 526.775391 369.953125 C 525.603516 367.316406 524.431641 365.851563 523.259766 365.558594 C 523.259766 366.291016 521.208984 368.048828 517.107422 370.832031 L 517.986328 376.105469 Z M 762.322266 376.105469 C 767.595703 372.003876 770.525391 369.953125 771.111328 369.953125 C 769.939453 367.316406 768.767578 365.851563 767.595703 365.558594 C 767.595703 366.291016 765.544922 368.048828 761.443359 370.832031 L 762.322266 376.105469 Z M 1028.191406 375.226563 L 1028.191406 374.347656 C 1018.230408 351.496063 1012.371094 338.605469 1010.613281 335.675781 L 1007.976563 333.917969 L 1007.097656 333.917969 C 1020.427795 361.310577 1027.458984 375.080078 1028.191406 375.226563 Z M 136.541016 373.46875 L 137.419922 373.46875 L 137.419922 372.589844 L 136.541016 368.195313 C 137.126953 367.023438 137.419922 366.144531 137.419922 365.558594 C 136.248047 365.705078 135.662109 366.291016 135.662109 367.316406 L 135.662109 369.074219 L 136.541016 373.46875 Z M 380.876953 373.46875 L 381.755859 373.46875 L 381.755859 372.589844 L 380.876953 368.195313 C 381.462891 367.023438 381.755859 366.144531 381.755859 365.558594 C 380.583984 365.705078 379.998047 366.291016 379.998047 367.316406 L 379.998047 369.074219 L 380.876953 373.46875 Z M 625.212891 373.46875 L 626.091797 373.46875 L 626.091797 372.589844 L 625.212891 368.195313 C 625.798828 367.023438 626.091797 366.144531 626.091797 365.558594 C 624.919922 365.705078 624.333984 366.291016 624.333984 367.316406 L 624.333984 369.074219 L 625.212891 373.46875 Z M 853.289063 367.097656 C 855.632813 363.728485 860.027283 355.890686 866.472656 343.585938 C 865.154297 343.585938 863.396484 345.343719 861.199219 348.859375 L 853.289063 367.097656 Z M 841.863281 365.558594 C 844.207031 361.749969 847.136719 356.623077 850.652344 350.177734 C 849.041016 350.617188 847.503906 351.277344 846.039063 352.15625 L 841.863281 365.558594 Z M 273.650391 363.800781 L 274.529297 363.800781 C 275.408203 363.800781 276.287109 362.921875 277.166016 361.164063 C 273.65036 357.648407 269.548859 351.789093 264.861328 343.585938 L 263.103516 343.585938 C 265.300781 349.591827 268.816376 356.330048 273.650391 363.800781 Z M 517.986328 363.800781 L 518.865234 363.800781 C 519.744141 363.800781 520.623047 362.921875 521.501953 361.164063 C 517.986328 357.648407 513.884766 351.789093 509.197266 343.585938 L 507.439453 343.585938 C 509.636719 349.591827 513.152344 356.330048 517.986328 363.800781 Z M 762.322266 363.800781 L 763.201172 363.800781 C 764.080078 363.800781 764.958984 362.921875 765.837891 361.164063 C 762.322266 357.648407 758.220703 351.789093 753.533203 343.585938 L 751.775391 343.585938 C 753.972656 349.591827 757.488281 356.330048 762.322266 363.800781 Z M 1034.34375 361.164063 C 1034.34375 360.431641 1031.414063 357.501984 1025.554688 352.375 L 1025.554688 354.132813 C 1026.726563 358.820343 1029.65625 361.164063 1034.34375 361.164063 Z M 337.810547 360.285156 C 337.611206 358.30423 337.413849 356.211884 337.21875 354.025391 C 336.44397 354.936279 335.615906 355.888489 334.744141 356.878906 L 337.810547 360.285156 Z M 582.146484 360.285156 C 581.947144 358.30423 581.749817 356.211884 581.554688 354.025391 C 580.779907 354.936279 579.951843 355.888489 579.080078 356.878906 L 582.146484 360.285156 Z M 145.330078 358.527344 L 146.208984 358.527344 C 158.513718 345.05072 167.888641 333.625061 174.333984 324.25 L 174.333984 323.371094 C 154.997971 340.509827 145.330078 352.228485 145.330078 358.527344 Z M 389.666016 358.527344 L 390.544922 358.527344 C 402.84967 345.05072 412.224579 333.625061 418.669922 324.25 L 418.669922 323.371094 C 399.333954 340.509796 389.666016 352.228485 389.666016 358.527344 Z M 634.001953 358.527344 L 634.880859 358.527344 C 647.185608 345.05072 656.560486 333.625061 663.005859 324.25 L 663.005859 323.371094 C 643.6698 340.509766 634.001953 352.228485 634.001953 358.527344 Z M 1013.46875 356.109375 C 1001.017517 330.328094 993.328125 316.779297 990.398438 315.460938 L 987.101563 311.945313 C 996.330139 328.205078 1005.11908 342.92572 1013.46875 356.109375 Z M 829.681641 349.388672 C 832.382996 348.12265 835.246887 346.785522 838.347656 345.34375 L 839.226563 343.585938 C 838.752625 343.585938 836.515991 344.025146 832.634766 344.876953 L 832.634766 345.34375 C 831.838501 346.538147 830.852356 347.887238 829.681641 349.388672 Z M 849.554688 340.949219 L 849.773438 340.949219 C 853.875 340.216797 855.925781 338.751953 855.925781 336.554688 C 852.849609 337.140625 850.798828 338.019531 849.773438 339.191406 L 849.554688 340.949219 Z M 869.109375 333.917969 L 869.988281 333.917969 C 871.160156 333.332031 872.039063 333.039063 872.625 333.039063 C 872.625 331.867188 872.039063 331.28125 870.867188 331.28125 C 869.695313 331.427734 869.109375 332.306641 869.109375 333.917969 Z M 121.599609 328.644531 C 123.503914 328.644531 124.968742 321.320374 125.994141 306.671875 L 125.994141 299.640625 L 125.115234 299.640625 C 125.115234 302.570313 123.943375 312.23822 121.599609 328.644531 Z M 365.935547 328.644531 C 367.839844 328.644531 369.304688 321.320374 370.330078 306.671875 L 370.330078 299.640625 L 369.451172 299.640625 C 369.451172 302.570313 368.279297 312.238251 365.935547 328.644531 Z M 610.271484 328.644531 C 612.175781 328.644531 613.640625 321.320374 614.666016 306.671875 L 614.666016 299.640625 L 613.787109 299.640625 C 613.787109 302.570313 612.615234 312.238281 610.271484 328.644531 Z M 259.587891 326.007813 L 261.345703 326.007813 L 261.345703 325.128906 L 259.587891 325.128906 L 259.587891 326.007813 Z M 503.923828 326.007813 L 505.681641 326.007813 L 505.681641 325.128906 L 503.923828 325.128906 L 503.923828 326.007813 Z M 748.259766 326.007813 L 750.017578 326.007813 L 750.017578 325.128906 L 748.259766 325.128906 L 748.259766 326.007813 Z M 892.839844 325.128906 L 893.71875 325.128906 C 894.890625 325.128906 895.476563 324.542969 895.476563 323.371094 C 893.71875 323.371094 892.839844 323.957031 892.839844 325.128906 Z M 1005.339844 324.25 L 1006.21875 324.25 C 1001.677734 312.23822 991.13092 292.902374 974.578125 266.242188 L 974.578125 267.121094 C 991.423889 303.009857 1001.091797 321.759766 1003.582031 323.371094 L 1005.339844 324.25 Z M 135.662109 321.613281 L 136.541016 321.613281 L 136.541016 318.097656 L 135.662109 318.097656 L 135.662109 321.613281 Z M 379.998047 321.613281 L 380.876953 321.613281 L 380.876953 318.097656 L 379.998047 318.097656 L 379.998047 321.613281 Z M 624.333984 321.613281 L 625.212891 321.613281 L 625.212891 318.097656 L 624.333984 318.097656 L 624.333984 321.613281 Z M 113.689453 318.976563 L 114.568359 318.976563 L 114.568359 286.457031 L 113.689453 286.457031 C 113.689453 287.921875 113.396484 295.539001 112.810547 309.308594 C 113.396484 314.435577 113.689453 317.658203 113.689453 318.976563 Z M 358.025391 318.976563 L 358.904297 318.976563 L 358.904297 286.457031 L 358.025391 286.457031 C 358.025391 287.921875 357.732422 295.539001 357.146484 309.308594 C 357.732422 314.435577 358.025391 317.658203 358.025391 318.976563 Z M 602.361328 318.976563 L 603.240234 318.976563 L 603.240234 286.457031 L 602.361328 286.457031 C 602.361328 287.921875 602.068359 295.539001 601.482422 309.308594 C 602.068359 314.435577 602.361328 317.658203 602.361328 318.976563 Z M 821.648438 318.097656 L 823.40625 318.097656 L 823.40625 317.21875 L 821.648438 317.21875 L 821.648438 318.097656 Z M 824.285156 317.21875 L 826.921875 317.21875 C 846.257935 317.21875 855.925781 314.289093 855.925781 308.429688 C 855.925781 307.404297 856.511719 305.939453 857.683594 304.035156 L 856.804688 304.035156 C 840.691345 310.773468 829.851563 314.875 824.285156 316.339844 L 824.285156 317.21875 Z M 157.634766 315.460938 L 158.513672 315.460938 C 161.882828 312.970703 165.398422 309.16214 169.060547 304.035156 L 168.181641 304.035156 C 163.201141 307.697296 159.685562 311.505829 157.634766 315.460938 Z M 401.970703 315.460938 L 402.849609 315.460938 C 406.218781 312.970703 409.734344 309.16214 413.396484 304.035156 L 412.517578 304.035156 C 407.537079 307.697296 404.021484 311.505829 401.970703 315.460938 Z M 646.306641 315.460938 L 647.185547 315.460938 C 650.554688 312.970703 654.070313 309.16214 657.732422 304.035156 L 656.853516 304.035156 C 651.873047 307.697296 648.357422 311.505829 646.306641 315.460938 Z M 94.353516 314.582031 L 95.232422 314.582031 C 95.232422 299.054626 95.525391 281.476624 96.111328 261.847656 L 93.474609 239.875 L 92.595703 239.875 C 92.595703 242.658203 92.302734 245.58786 91.716797 248.664063 C 93.474617 286.603668 94.353516 308.576141 94.353516 314.582031 Z M 338.689453 314.582031 L 339.568359 314.582031 C 339.568359 299.054657 339.861328 281.476593 340.447266 261.847656 L 337.810547 239.875 L 336.931641 239.875 C 336.931641 242.658203 336.638672 245.58786 336.052734 248.664063 C 337.810547 286.603638 338.689453 308.576141 338.689453 314.582031 Z M 583.025391 314.582031 L 583.904297 314.582031 C 583.904297 299.054688 584.197266 281.476563 584.783203 261.847656 L 582.146484 239.875 L 581.267578 239.875 C 581.267578 242.658203 580.974609 245.58786 580.388672 248.664063 C 582.146484 286.603607 583.025391 308.576141 583.025391 314.582031 Z M 144.451172 312.824219 C 151.628937 306.085907 158.660126 295.832092 165.544922 282.0625 L 164.666016 282.0625 C 162.908188 283.087891 156.169968 291.876892 144.451172 308.429688 L 144.451172 312.824219 Z M 388.787109 312.824219 C 395.964874 306.085907 402.996063 295.832092 409.880859 282.0625 L 409.001953 282.0625 C 407.244141 283.087891 400.50592 291.876923 388.787109 308.429688 L 388.787109 312.824219 Z M 633.123047 312.824219 C 640.300842 306.085907 647.33197 295.832092 654.216797 282.0625 L 653.337891 282.0625 C 651.580078 283.087891 644.841858 291.876953 633.123047 308.429688 L 633.123047 312.824219 Z M 118.962891 311.066406 L 119.841797 311.066406 L 119.841797 308.429688 L 118.962891 308.429688 L 118.962891 311.066406 Z M 363.298828 311.066406 L 364.177734 311.066406 L 364.177734 308.429688 L 363.298828 308.429688 L 363.298828 311.066406 Z M 607.634766 311.066406 L 608.513672 311.066406 L 608.513672 308.429688 L 607.634766 308.429688 L 607.634766 311.066406 Z M 864.714844 311.066406 C 865.886719 311.066406 866.472656 310.480469 866.472656 309.308594 L 864.714844 309.308594 L 864.714844 311.066406 Z M 188.396484 305.792969 C 189.275391 305.792969 191.033188 304.035187 193.669922 300.519531 L 192.791016 300.519531 C 192.058594 300.519531 190.593765 301.984375 188.396484 304.914063 L 188.396484 305.792969 Z M 432.732422 305.792969 C 433.611328 305.792969 435.369141 304.035187 438.005859 300.519531 L 437.126953 300.519531 C 436.394531 300.519531 434.929688 301.984375 432.732422 304.914063 L 432.732422 305.792969 Z M 677.068359 305.792969 C 677.947266 305.792969 679.705078 304.035187 682.341797 300.519531 L 681.462891 300.519531 C 680.730469 300.519531 679.265625 301.984375 677.068359 304.914063 L 677.068359 305.792969 Z M 987.761719 305.792969 L 988.640625 305.792969 L 986.222656 301.179688 L 983.585938 302.058594 L 987.761719 305.792969 Z M 119.841797 304.914063 L 120.720703 304.914063 C 124.822281 272.540894 126.873047 254.962891 126.873047 252.179688 C 125.701164 241.046814 125.115234 234.601563 125.115234 232.84375 L 124.236328 232.84375 C 122.478508 252.91217 121.01368 276.056549 119.841797 302.277344 L 119.841797 304.914063 Z M 364.177734 304.914063 L 365.056641 304.914063 C 369.158234 272.540924 371.208984 254.962891 371.208984 252.179688 C 370.037109 241.046814 369.451172 234.601563 369.451172 232.84375 L 368.572266 232.84375 C 366.814453 252.91214 365.349609 276.05658 364.177734 302.277344 L 364.177734 304.914063 Z M 608.513672 304.914063 L 609.392578 304.914063 C 613.494141 272.540955 615.544922 254.962891 615.544922 252.179688 C 614.373047 241.046814 613.787109 234.601563 613.787109 232.84375 L 612.908203 232.84375 C 611.150391 252.912109 609.685547 276.05661 608.513672 302.277344 L 608.513672 304.914063 Z M 213.884766 302.277344 L 214.763672 302.277344 C 211.980453 297.589813 210.222656 295.246094 209.490234 295.246094 L 209.490234 297.003906 C 211.687515 300.519562 213.152344 302.277344 213.884766 302.277344 Z M 458.220703 302.277344 L 459.099609 302.277344 C 456.316406 297.589813 454.558594 295.246094 453.826172 295.246094 L 453.826172 297.003906 C 456.023438 300.519562 457.488281 302.277344 458.220703 302.277344 Z M 702.556641 302.277344 L 703.435547 302.277344 C 700.652344 297.589813 698.894531 295.246094 698.162109 295.246094 L 698.162109 297.003906 C 700.359375 300.519562 701.824219 302.277344 702.556641 302.277344 Z M 857.683594 298.761719 L 859.441406 298.761719 L 859.441406 297.882813 L 857.683594 297.882813 L 857.683594 298.761719 Z M 905.144531 297.882813 C 927.556763 289.533173 946.013611 281.916046 960.515625 275.03125 C 959.636719 272.6875 958.757813 271.515625 957.878906 271.515625 C 925.652344 278.986359 909.539063 283.380859 909.539063 284.699219 C 906.609375 290.41214 905.144531 294.80661 905.144531 297.882813 Z M 125.994141 295.246094 L 126.873047 295.246094 L 126.873047 293.488281 L 125.994141 293.488281 L 125.994141 295.246094 Z M 170.818359 295.246094 L 180.486328 286.457031 L 180.486328 285.578125 C 180.486328 284.699219 179.607437 283.820313 177.849609 282.941406 C 177.849609 283.527344 174.919952 287.042938 169.060547 293.488281 C 169.207031 294.660156 169.792969 295.246094 170.818359 295.246094 Z M 370.330078 295.246094 L 371.208984 295.246094 L 371.208984 293.488281 L 370.330078 293.488281 L 370.330078 295.246094 Z M 415.154297 295.246094 L 424.822266 286.457031 L 424.822266 285.578125 C 424.822266 284.699219 423.943359 283.820313 422.185547 282.941406 C 422.185547 283.527344 419.25589 287.042938 413.396484 293.488281 C 413.542969 294.660156 414.128906 295.246094 415.154297 295.246094 Z M 614.666016 295.246094 L 615.544922 295.246094 L 615.544922 293.488281 L 614.666016 293.488281 L 614.666016 295.246094 Z M 659.490234 295.246094 L 669.158203 286.457031 L 669.158203 285.578125 C 669.158203 284.699219 668.279297 283.820313 666.521484 282.941406 C 666.521484 283.527344 663.591797 287.042938 657.732422 293.488281 C 657.878906 294.660156 658.464844 295.246094 659.490234 295.246094 Z M 197.185547 290.851563 L 198.064453 289.09375 C 198.064453 287.921875 197.478516 287.335938 196.306641 287.335938 L 195.427734 287.335938 L 195.427734 289.09375 C 195.574219 290.265625 196.160156 290.851563 197.185547 290.851563 Z M 441.521484 290.851563 L 442.400391 289.09375 C 442.400391 287.921875 441.814453 287.335938 440.642578 287.335938 L 439.763672 287.335938 L 439.763672 289.09375 C 439.910156 290.265625 440.496094 290.851563 441.521484 290.851563 Z M 685.857422 290.851563 L 686.736328 289.09375 C 686.736328 287.921875 686.150391 287.335938 684.978516 287.335938 L 684.099609 287.335938 L 684.099609 289.09375 C 684.246094 290.265625 684.832031 290.851563 685.857422 290.851563 Z M 869.988281 288.214844 L 871.746094 288.214844 C 873.503906 283.966766 874.382813 281.623047 874.382813 281.183594 L 872.625 281.183594 C 872.625 282.501953 871.746094 284.845673 869.988281 288.214844 Z M 202.458984 286.457031 L 204.216797 283.820313 C 201.433578 279.718719 199.675781 277.667969 198.943359 277.667969 L 198.064453 279.425781 C 198.064453 282.648468 199.529282 284.992188 202.458984 286.457031 Z M 446.794922 286.457031 L 448.552734 283.820313 C 445.769531 279.718719 444.011719 277.667969 443.279297 277.667969 L 442.400391 279.425781 C 442.400391 282.648468 443.865234 284.992188 446.794922 286.457031 Z M 691.130859 286.457031 L 692.888672 283.820313 C 690.105469 279.718719 688.347656 277.667969 687.615234 277.667969 L 686.736328 279.425781 C 686.736328 282.648468 688.201172 284.992188 691.130859 286.457031 Z M 170.818359 282.0625 L 171.697266 282.0625 C 172.576172 282.0625 173.455078 281.183594 174.333984 279.425781 L 172.576172 278.546875 L 170.818359 282.0625 Z M 415.154297 282.0625 L 416.033203 282.0625 C 416.912109 282.0625 417.791016 281.183594 418.669922 279.425781 L 416.912109 278.546875 L 415.154297 282.0625 Z M 659.490234 282.0625 L 660.369141 282.0625 C 661.248047 282.0625 662.126953 281.183594 663.005859 279.425781 L 661.248047 278.546875 L 659.490234 282.0625 Z M 1002.703125 282.0625 L 1004.460938 282.0625 C 1000.212891 275.177704 997.283203 269.611359 995.671875 265.363281 L 993.914063 265.363281 C 993.914063 266.974609 996.84375 272.540955 1002.703125 282.0625 Z M 184.880859 281.183594 C 184.880859 280.158203 185.75975 278.693359 187.517578 276.789063 L 187.517578 275.03125 C 187.517578 273.859375 186.931641 273.273438 185.759766 273.273438 L 184.880859 273.273438 C 183.123032 276.789093 182.244141 278.839844 182.244141 279.425781 L 184.880859 281.183594 Z M 429.216797 281.183594 C 429.216797 280.158203 430.095703 278.693359 431.853516 276.789063 L 431.853516 275.03125 C 431.853516 273.859375 431.267578 273.273438 430.095703 273.273438 L 429.216797 273.273438 C 427.458984 276.789093 426.580078 278.839844 426.580078 279.425781 L 429.216797 281.183594 Z M 673.552734 281.183594 C 673.552734 280.158203 674.431641 278.693359 676.189453 276.789063 L 676.189453 275.03125 C 676.189453 273.859375 675.603516 273.273438 674.431641 273.273438 L 673.552734 273.273438 C 671.794922 276.789093 670.916016 278.839844 670.916016 279.425781 L 673.552734 281.183594 Z M 207.732422 280.304688 L 207.732422 279.425781 L 203.337891 272.394531 L 204.216797 268 C 203.044922 268 202.458984 267.121094 202.458984 265.363281 L 200.701172 265.363281 C 200.701172 266.828125 200.115234 268.292969 198.943359 269.757813 C 203.923859 276.642609 206.853516 280.158203 207.732422 280.304688 Z M 452.068359 280.304688 L 452.068359 279.425781 L 447.673828 272.394531 L 448.552734 268 C 447.380859 268 446.794922 267.121094 446.794922 265.363281 L 445.037109 265.363281 C 445.037109 266.828125 444.451172 268.292969 443.279297 269.757813 C 448.259796 276.642609 451.189453 280.158203 452.068359 280.304688 Z M 696.404297 280.304688 L 696.404297 279.425781 L 692.009766 272.394531 L 692.888672 268 C 691.716797 268 691.130859 267.121094 691.130859 265.363281 L 689.373047 265.363281 C 689.373047 266.828125 688.787109 268.292969 687.615234 269.757813 C 692.595703 276.642609 695.525391 280.158203 696.404297 280.304688 Z M 860.320313 279.425781 L 862.078125 279.425781 L 862.078125 278.546875 L 860.320313 278.546875 L 860.320313 279.425781 Z M 863.835938 278.546875 L 865.59375 278.546875 C 869.109375 277.960938 870.867188 276.789063 870.867188 275.03125 L 869.988281 275.03125 C 865.886719 276.496094 863.835938 277.667969 863.835938 278.546875 Z M 913.054688 276.789063 L 951.726563 261.847656 L 951.726563 260.96875 C 948.503906 260.96875 935.906372 265.656189 913.933594 275.03125 L 913.054688 275.03125 L 913.054688 276.789063 Z M 876.140625 275.910156 L 877.019531 275.910156 L 877.019531 274.152344 L 876.140625 274.152344 L 876.140625 275.910156 Z M 195.427734 275.03125 L 197.185547 275.03125 L 197.185547 274.152344 L 195.427734 274.152344 L 195.427734 275.03125 Z M 439.763672 275.03125 L 441.521484 275.03125 L 441.521484 274.152344 L 439.763672 274.152344 L 439.763672 275.03125 Z M 684.099609 275.03125 L 685.857422 275.03125 L 685.857422 274.152344 L 684.099609 274.152344 L 684.099609 275.03125 Z M 179.607422 274.152344 C 179.607422 272.394531 181.365219 271.515625 184.880859 271.515625 C 182.683578 267.999969 181.21875 266.242188 180.486328 266.242188 C 180.486328 266.974609 179.314468 269.02536 176.970703 272.394531 C 177.263672 272.394531 178.142578 272.980469 179.607422 274.152344 Z M 423.943359 274.152344 C 423.943359 272.394531 425.701141 271.515625 429.216797 271.515625 C 427.019531 267.999969 425.554688 266.242188 424.822266 266.242188 C 424.822266 266.974609 423.650391 269.02536 421.306641 272.394531 C 421.599609 272.394531 422.478516 272.980469 423.943359 274.152344 Z M 668.279297 274.152344 C 668.279297 272.394531 670.037109 271.515625 673.552734 271.515625 C 671.355469 267.999969 669.890625 266.242188 669.158203 266.242188 C 669.158203 266.974609 667.986328 269.02536 665.642578 272.394531 C 665.935547 272.394531 666.814453 272.980469 668.279297 274.152344 Z M 964.910156 274.152344 L 968.425781 272.833984 L 966.228516 268.878906 C 964.910156 269.318359 963.884766 269.904297 963.152344 270.636719 L 964.910156 274.152344 Z M 191.033203 271.515625 C 192.205078 271.515625 192.791016 270.929688 192.791016 269.757813 C 181.07222 254.523376 174.919922 246.90625 174.333984 246.90625 L 173.455078 246.90625 C 175.066422 251.447296 180.925751 259.65033 191.033203 271.515625 Z M 435.369141 271.515625 C 436.541016 271.515625 437.126953 270.929688 437.126953 269.757813 C 425.408142 254.523376 419.255859 246.90625 418.669922 246.90625 L 417.791016 246.90625 C 419.402344 251.447296 425.261658 259.65033 435.369141 271.515625 Z M 679.705078 271.515625 C 680.876953 271.515625 681.462891 270.929688 681.462891 269.757813 C 669.74408 254.523376 663.591797 246.90625 663.005859 246.90625 L 662.126953 246.90625 C 663.738281 251.447296 669.597595 259.65033 679.705078 271.515625 Z M 942.058594 270.636719 L 943.816406 270.636719 L 943.816406 269.757813 L 942.058594 269.757813 L 942.058594 270.636719 Z M 944.695313 269.757813 L 945.574219 269.757813 C 952.019592 268.585938 955.242188 267.121094 955.242188 265.363281 C 953.923828 265.363281 950.408203 266.535156 944.695313 268.878906 L 944.695313 269.757813 Z M 960.515625 266.242188 L 964.03125 265.144531 L 962.273438 261.628906 C 960.369141 262.361328 959.197266 262.726563 958.757813 262.726563 L 958.757813 263.605469 L 960.515625 266.242188 Z M 917.449219 265.363281 C 934.88092 260.822235 945.134766 257.306641 948.210938 254.816406 C 945.867188 250.861298 944.695313 248.517578 944.695313 247.785156 C 928.289001 251.447296 920.085938 255.255829 920.085938 259.210938 C 918.328125 262.140625 917.449219 264.191406 917.449219 265.363281 Z M 1000.066406 261.1875 L 1000.066406 260.96875 L 999.847656 260.96875 L 1000.066406 261.1875 Z M 978.09375 260.089844 L 978.09375 259.210938 C 974.724609 250.128876 969.451233 241.339874 962.273438 232.84375 L 961.394531 232.84375 L 961.394531 233.722656 C 965.496094 243.097717 967.546875 248.664063 967.546875 250.421875 L 969.304688 249.542969 C 970.183594 249.542969 973.113281 253.058563 978.09375 260.089844 Z M 953.484375 253.058594 L 956.78125 251.740234 L 953.044922 244.929688 C 950.408203 245.662109 949.089844 246.320313 949.089844 246.90625 C 950.554688 250.714874 952.019531 252.765625 953.484375 253.058594 Z M 100.505859 252.179688 L 101.384766 252.179688 L 101.384766 238.117188 L 100.505859 238.117188 L 100.505859 252.179688 Z M 344.841797 252.179688 L 345.720703 252.179688 L 345.720703 238.117188 L 344.841797 238.117188 L 344.841797 252.179688 Z M 589.177734 252.179688 L 590.056641 252.179688 L 590.056641 238.117188 L 589.177734 238.117188 L 589.177734 252.179688 Z M 927.117188 248.664063 C 934.587952 245.734375 939.568359 244.269531 942.058594 244.269531 C 936.785156 236.21286 934.148438 231.525391 934.148438 230.207031 C 933.416016 230.207031 930.486328 236.066345 925.359375 247.785156 L 927.117188 248.664063 Z M 981.609375 247.785156 L 982.488281 247.785156 L 982.488281 246.027344 L 981.609375 246.027344 L 981.609375 247.785156 Z M 946.453125 242.511719 L 950.847656 241.193359 L 938.982422 219.660156 L 935.90625 224.933594 C 937.664063 229.035187 941.179688 234.894501 946.453125 242.511719 Z M 978.972656 240.753906 L 979.851563 240.753906 L 979.851563 239.875 C 979.412109 239.142578 979.119141 238.410156 978.972656 237.677734 L 977.654297 238.117188 L 978.972656 240.753906 Z M 984.90625 239.65625 C 1000.28717 233.357391 1007.976563 229.914063 1007.976563 229.328125 L 1007.097656 229.328125 C 996.111267 232.404327 987.980469 234.820313 982.707031 236.578125 L 984.90625 239.65625 Z M 118.962891 235.480469 L 119.841797 235.480469 C 119.841797 226.984344 120.720695 216.437561 122.478516 203.839844 C 121.892578 201.789063 121.599609 198.859406 121.599609 195.050781 L 120.720703 195.050781 C 119.54882 201.789093 118.962891 209.992126 118.962891 219.660156 L 118.962891 235.480469 Z M 363.298828 235.480469 L 364.177734 235.480469 C 364.177734 226.984344 365.056641 216.437561 366.814453 203.839844 C 366.228516 201.789063 365.935547 198.859406 365.935547 195.050781 L 365.056641 195.050781 C 363.884766 201.789093 363.298828 209.992126 363.298828 219.660156 L 363.298828 235.480469 Z M 607.634766 235.480469 L 608.513672 235.480469 C 608.513672 226.984344 609.392578 216.437561 611.150391 203.839844 C 610.564453 201.789063 610.271484 198.859406 610.271484 195.050781 L 609.392578 195.050781 C 608.220703 201.789093 607.634766 209.992126 607.634766 219.660156 L 607.634766 235.480469 Z M 1011.492188 228.449219 L 1013.25 228.449219 L 1013.25 227.570313 L 1011.492188 227.570313 L 1011.492188 228.449219 Z M 945.574219 222.296875 L 947.332031 222.296875 C 941.472656 210.871033 938.542969 204.71875 938.542969 203.839844 L 936.785156 203.839844 C 936.785156 204.71875 939.714844 210.871033 945.574219 222.296875 Z M 951.726563 202.082031 L 953.484375 202.082031 L 947.332031 188.019531 L 946.453125 188.019531 C 946.453125 188.605469 946.160156 189.484375 945.574219 190.65625 C 949.675781 197.248077 951.726563 201.056641 951.726563 202.082031 Z M 912.175781 199.445313 C 913.054688 199.445313 914.519531 197.101593 916.570313 192.414063 L 914.8125 191.535156 C 914.8125 192.560547 913.933594 195.197235 912.175781 199.445313 Z M 926.238281 187.140625 L 927.117188 187.140625 L 928.875 186.261719 C 923.601563 178.790985 920.964844 174.689453 920.964844 173.957031 L 919.207031 173.957031 C 923.894531 182.013702 926.238281 186.408203 926.238281 187.140625 Z M 101.384766 180.109375 L 102.263672 180.109375 L 102.263672 178.351563 L 101.384766 178.351563 L 101.384766 180.109375 Z M 345.720703 180.109375 L 346.599609 180.109375 L 346.599609 178.351563 L 345.720703 178.351563 L 345.720703 180.109375 Z M 590.056641 180.109375 L 590.935547 180.109375 L 590.935547 178.351563 L 590.056641 178.351563 L 590.056641 180.109375 Z M 136.541016 179.230469 L 137.419922 179.230469 C 150.89653 170.441376 157.634766 165.753906 157.634766 165.167969 L 156.755859 165.167969 C 145.623001 169.562531 138.884781 173.078125 136.541016 175.714844 L 136.541016 179.230469 Z M 380.876953 179.230469 L 381.755859 179.230469 C 395.232483 170.441376 401.970703 165.753906 401.970703 165.167969 L 401.091797 165.167969 C 389.958923 169.562531 383.220703 173.078125 380.876953 175.714844 L 380.876953 179.230469 Z M 625.212891 179.230469 L 626.091797 179.230469 C 639.56842 170.441376 646.306641 165.753906 646.306641 165.167969 L 645.427734 165.167969 C 634.294861 169.562531 627.556641 173.078125 625.212891 175.714844 L 625.212891 179.230469 Z M 918.328125 163.410156 L 920.085938 163.410156 C 895.915894 118.7323 882.146484 94.123047 878.777344 89.582031 L 878.777344 90.460938 C 889.910217 122.98053 897.162109 141.876923 900.53125 147.150391 L 901.628906 146.710938 L 902.068359 146.929688 C 900.017578 144 898.992188 141.583984 898.992188 139.679688 C 899.138672 138.507813 900.017578 137.921875 901.628906 137.921875 C 903.386719 139.240234 908.953064 147.736328 918.328125 163.410156 Z M 956.121094 158.136719 L 957.878906 158.136719 L 957.878906 157.257813 L 956.121094 157.257813 L 956.121094 158.136719 Z M 958.757813 153.742188 L 960.515625 153.742188 L 960.515625 152.863281 L 958.757813 152.863281 L 958.757813 153.742188 Z M 960.515625 151.105469 L 962.273438 151.105469 L 962.273438 150.226563 L 960.515625 150.226563 L 960.515625 151.105469 Z M 113.689453 149.347656 C 120.720734 146.417969 124.236328 143.78125 124.236328 141.4375 L 123.357422 141.4375 L 113.689453 147.589844 L 113.689453 149.347656 Z M 358.025391 149.347656 C 365.056671 146.417969 368.572266 143.78125 368.572266 141.4375 L 367.693359 141.4375 L 358.025391 147.589844 L 358.025391 149.347656 Z M 602.361328 149.347656 C 609.392639 146.417969 612.908203 143.78125 612.908203 141.4375 L 612.029297 141.4375 L 602.361328 147.589844 L 602.361328 149.347656 Z M 962.273438 148.46875 L 964.03125 148.46875 L 964.03125 147.589844 L 962.273438 147.589844 L 962.273438 148.46875 Z M 184.880859 146.710938 L 185.759766 146.710938 C 186.931641 146.710938 187.517578 146.125 187.517578 144.953125 L 186.638672 144.953125 C 185.466797 145.099609 184.880859 145.685547 184.880859 146.710938 Z M 429.216797 146.710938 L 430.095703 146.710938 C 431.267578 146.710938 431.853516 146.125 431.853516 144.953125 L 430.974609 144.953125 C 429.802734 145.099609 429.216797 145.685547 429.216797 146.710938 Z M 673.552734 146.710938 L 674.431641 146.710938 C 675.603516 146.710938 676.189453 146.125 676.189453 144.953125 L 675.310547 144.953125 C 674.138672 145.099609 673.552734 145.685547 673.552734 146.710938 Z M 964.03125 145.832031 L 965.789063 145.832031 L 965.789063 144.953125 L 964.03125 144.953125 L 964.03125 145.832031 Z M 133.025391 140.558594 L 138.298828 139.679688 L 138.298828 140.558594 C 146.209015 136.457001 150.310547 133.820313 150.603516 132.648438 L 149.724609 132.648438 C 148.699219 133.234375 142.546921 135.285126 131.267578 138.800781 C 131.414063 139.972656 132 140.558594 133.025391 140.558594 Z M 377.361328 140.558594 L 382.634766 139.679688 L 382.634766 140.558594 C 390.544952 136.457001 394.646484 133.820313 394.939453 132.648438 L 394.060547 132.648438 C 393.035156 133.234375 386.882874 135.285126 375.603516 138.800781 C 375.75 139.972656 376.335938 140.558594 377.361328 140.558594 Z M 621.697266 140.558594 L 626.970703 139.679688 L 626.970703 140.558594 C 634.88092 136.457001 638.982422 133.820313 639.275391 132.648438 L 638.396484 132.648438 C 637.371094 133.234375 631.218811 135.285126 619.939453 138.800781 C 620.085938 139.972656 620.671875 140.558594 621.697266 140.558594 Z M 205.095703 138.800781 C 215.935593 135.43161 223.552719 131.623077 227.947266 127.375 L 227.068359 127.375 C 212.419861 132.941437 205.095703 136.457031 205.095703 137.921875 L 205.095703 138.800781 Z M 449.431641 138.800781 C 460.271545 135.43161 467.888641 131.623077 472.283203 127.375 L 471.404297 127.375 C 456.755798 132.941437 449.431641 136.457031 449.431641 137.921875 L 449.431641 138.800781 Z M 693.767578 138.800781 C 704.607483 135.43161 712.224609 131.623077 716.619141 127.375 L 715.740234 127.375 C 701.091736 132.941437 693.767578 136.457031 693.767578 137.921875 L 693.767578 138.800781 Z M 217.400391 125.617188 L 218.279297 125.617188 L 255.193359 109.796875 L 255.193359 108.039063 L 254.314453 108.039063 C 232.781158 115.802795 220.476578 121.662079 217.400391 125.617188 Z M 461.736328 125.617188 L 462.615234 125.617188 L 499.529297 109.796875 L 499.529297 108.039063 L 498.650391 108.039063 C 477.117126 115.802795 464.812531 121.662079 461.736328 125.617188 Z M 706.072266 125.617188 L 706.951172 125.617188 L 743.865234 109.796875 L 743.865234 108.039063 L 742.986328 108.039063 C 721.453003 115.802795 709.148438 121.662079 706.072266 125.617188 Z M 157.634766 122.980469 L 159.392578 122.980469 L 159.392578 122.101563 L 157.634766 122.101563 L 157.634766 122.980469 Z M 401.970703 122.980469 L 403.728516 122.980469 L 403.728516 122.101563 L 401.970703 122.101563 L 401.970703 122.980469 Z M 646.306641 122.980469 L 648.064453 122.980469 L 648.064453 122.101563 L 646.306641 122.101563 L 646.306641 122.980469 Z M 162.908203 121.222656 L 163.787109 121.222656 C 179.753967 115.949219 190.886688 111.847656 197.185547 108.917969 L 197.185547 108.039063 L 196.306641 108.039063 C 180.92572 112.433594 169.792999 116.828125 162.908203 121.222656 Z M 407.244141 121.222656 L 408.123047 121.222656 C 424.089874 115.949219 435.222626 111.847656 441.521484 108.917969 L 441.521484 108.039063 L 440.642578 108.039063 C 425.261688 112.433594 414.128937 116.828125 407.244141 121.222656 Z M 651.580078 121.222656 L 652.458984 121.222656 C 668.425842 115.949219 679.558533 111.847656 685.857422 108.917969 L 685.857422 108.039063 L 684.978516 108.039063 C 669.597595 112.433594 658.464905 116.828125 651.580078 121.222656 Z M 198.064453 108.039063 L 199.822266 108.039063 L 199.822266 107.160156 L 198.064453 107.160156 L 198.064453 108.039063 Z M 442.400391 108.039063 L 444.158203 108.039063 L 444.158203 107.160156 L 442.400391 107.160156 L 442.400391 108.039063 Z M 686.736328 108.039063 L 688.494141 108.039063 L 688.494141 107.160156 L 686.736328 107.160156 L 686.736328 108.039063 Z M 209.490234 104.523438 L 212.126953 104.523438 C 214.031265 103.351563 215.496094 102.765625 216.521484 102.765625 L 216.521484 101.886719 L 215.642578 101.886719 L 209.490234 103.644531 L 209.490234 104.523438 Z M 453.826172 104.523438 L 456.462891 104.523438 C 458.367188 103.351563 459.832031 102.765625 460.857422 102.765625 L 460.857422 101.886719 L 459.978516 101.886719 L 453.826172 103.644531 L 453.826172 104.523438 Z M 698.162109 104.523438 L 700.798828 104.523438 C 702.703125 103.351563 704.167969 102.765625 705.193359 102.765625 L 705.193359 101.886719 L 704.314453 101.886719 L 698.162109 103.644531 L 698.162109 104.523438 Z M 253.435547 103.644531 L 255.193359 103.644531 L 255.193359 102.765625 L 253.435547 102.765625 L 253.435547 103.644531 Z M 497.771484 103.644531 L 499.529297 103.644531 L 499.529297 102.765625 L 497.771484 102.765625 L 497.771484 103.644531 Z M 742.107422 103.644531 L 743.865234 103.644531 L 743.865234 102.765625 L 742.107422 102.765625 L 742.107422 103.644531 Z M 220.037109 101.007813 L 221.794922 101.007813 L 221.794922 100.128906 L 220.037109 100.128906 L 220.037109 101.007813 Z M 464.373047 101.007813 L 466.130859 101.007813 L 466.130859 100.128906 L 464.373047 100.128906 L 464.373047 101.007813 Z M 708.708984 101.007813 L 710.466797 101.007813 L 710.466797 100.128906 L 708.708984 100.128906 L 708.708984 101.007813 Z"/>
</svg>
